<?xml version="1.0" encoding="UTF-8" standalone="no"?>
<svg
   xmlns:dc="http://purl.org/dc/elements/1.1/"
   xmlns:cc="http://creativecommons.org/ns#"
   xmlns:rdf="http://www.w3.org/1999/02/22-rdf-syntax-ns#"
   xmlns:svg="http://www.w3.org/2000/svg"
   xmlns="http://www.w3.org/2000/svg"
   xmlns:sodipodi="http://sodipodi.sourceforge.net/DTD/sodipodi-0.dtd"
   xmlns:inkscape="http://www.inkscape.org/namespaces/inkscape"
   width="1024px"
   height="1024px"
   viewBox="0 0 1024 1024"
   version="1.1"
   id="svg4511"
   inkscape:version="0.47 r22583"
   sodipodi:docname="home.unfold.svg"
   inkscape:export-filename="/media/z0/python/1001/golive_client/data/models/buildings/home.tex.png"
   inkscape:export-xdpi="90"
   inkscape:export-ydpi="90">
  <metadata
     id="metadata4589">
    <rdf:RDF>
      <cc:Work
         rdf:about="">
        <dc:format>image/svg+xml</dc:format>
        <dc:type
           rdf:resource="http://purl.org/dc/dcmitype/StillImage" />
        <dc:title />
      </cc:Work>
    </rdf:RDF>
  </metadata>
  <defs
     id="defs4587">
    <inkscape:perspective
       sodipodi:type="inkscape:persp3d"
       inkscape:vp_x="0 : 512 : 1"
       inkscape:vp_y="0 : 1000 : 0"
       inkscape:vp_z="1024 : 512 : 1"
       inkscape:persp3d-origin="512 : 341.33333 : 1"
       id="perspective4591" />
  </defs>
  <sodipodi:namedview
     pagecolor="#ffffff"
     bordercolor="#666666"
     borderopacity="1"
     objecttolerance="10"
     gridtolerance="10"
     guidetolerance="10"
     inkscape:pageopacity="0"
     inkscape:pageshadow="2"
     inkscape:window-width="1278"
     inkscape:window-height="754"
     id="namedview4585"
     showgrid="false"
     inkscape:zoom="1.3037281"
     inkscape:cx="786.7066"
     inkscape:cy="631.8061"
     inkscape:window-x="0"
     inkscape:window-y="15"
     inkscape:window-maximized="0"
     inkscape:current-layer="svg4511" />
  <desc
     id="desc4513">UV-Map from Object: home. Exported from Blender3D with UV Exportscript</desc>
  <rect
     x="0"
     y="0"
     width="1024"
     height="1024"
     fill="none"
     stroke="blue"
     stroke-width="1px"
     id="rect4515" />
  <g
     style="fill:#F2DAF2; stroke:black; stroke-width:1px;"
     id="g4517">
    <polygon
       points="739.514,1019.117 692.445,806.684 517.765,848.080 482.368,1019.117 "
       id="polygon4519" />
    <polygon
       points="726.367,71.050 726.367,204.290 860.447,204.290 860.447,71.050 "
       id="polygon4521" />
    <polygon
       points="1021.074,1016.676 985.677,845.639 810.997,804.243 763.928,1016.676 "
       id="polygon4523" />
    <polygon
       points="401.199,290.066 401.522,463.481 620.313,463.074 619.990,289.658 "
       id="polygon4525" />
    <polygon
       points="401.199,290.066 619.990,289.658 619.758,165.067 400.967,165.475 "
       id="polygon4527" />
    <polygon
       points="810.997,804.243 985.677,845.639 995.674,646.102 817.885,646.102 "
       id="polygon4529" />
    <polygon
       points="860.447,204.290 726.367,204.290 726.367,355.066 860.447,355.066 "
       id="polygon4531" />
    <polygon
       points="517.765,848.080 692.445,806.684 685.557,648.543 507.769,648.543 "
       id="polygon4533" />
    <polygon
       points="507.769,648.543 685.557,648.543 699.104,537.531 522.852,508.369 "
       id="polygon4535" />
    <polygon
       points="860.447,355.066 726.367,355.066 726.367,461.733 860.447,461.733 "
       id="polygon4537" />
    <polygon
       points="817.885,646.102 995.674,646.102 980.591,505.928 804.338,535.090 "
       id="polygon4539" />
    <polygon
       points="400.967,165.475 619.758,165.067 619.594,76.725 400.803,77.132 "
       id="polygon4541" />
    <polygon
       points="54.547,298.122 60.256,475.052 281.548,467.911 275.838,290.981 "
       id="polygon4543" />
    <polygon
       points="204.415,708.331 212.187,652.182 129.084,742.058 191.765,740.820 "
       id="polygon4545" />
    <polygon
       points="189.545,746.831 129.084,742.058 209.293,836.472 203.798,770.672 "
       id="polygon4547" />
    <polygon
       points="207.700,769.326 209.293,836.472 278.361,745.192 234.585,747.307 "
       id="polygon4549" />
    <polygon
       points="234.802,740.638 278.361,745.192 212.187,652.182 208.521,709.924 "
       id="polygon4551" />
    <polygon
       points="129.084,742.058 106.033,743.302 211.618,625.915 129.084,742.058 "
       id="polygon4553" />
    <polygon
       points="209.293,836.472 210.518,863.023 106.033,743.302 209.293,836.472 "
       id="polygon4555" />
    <polygon
       points="278.361,745.192 297.925,744.253 210.518,863.023 278.361,745.192 "
       id="polygon4557" />
    <polygon
       points="212.187,652.182 211.618,625.915 297.925,744.253 212.187,652.182 "
       id="polygon4559" />
    <polygon
       points="106.033,743.302 75.370,744.982 210.979,591.501 106.033,743.302 "
       id="polygon4561" />
    <polygon
       points="210.518,863.023 212.287,897.901 75.370,744.982 210.518,863.023 "
       id="polygon4563" />
    <polygon
       points="297.925,744.253 323.387,742.951 212.287,897.901 297.925,744.253 "
       id="polygon4565" />
    <polygon
       points="211.618,625.915 210.979,591.501 323.387,742.951 211.618,625.915 "
       id="polygon4567" />
    <polygon
       points="210.979,591.501 186.714,529.218 28.237,708.581 75.370,744.982 "
       id="polygon4569" />
    <polygon
       points="75.370,744.982 28.258,781.905 188.264,960.612 212.287,897.901 "
       id="polygon4571" />
    <polygon
       points="212.287,897.901 238.960,951.389 368.795,770.310 323.387,742.951 "
       id="polygon4573" />
    <polygon
       points="323.387,742.951 368.091,714.821 236.727,537.831 210.979,591.501 "
       id="polygon4575" />
    <polygon
       points="186.714,529.218 0.000,467.389 28.237,708.581 "
       id="polygon4577" />
    <polygon
       points="28.258,781.905 0.000,1024.000 188.264,960.612 "
       id="polygon4579" />
    <polygon
       points="238.960,951.389 414.009,981.949 368.795,770.310 "
       id="polygon4581" />
    <polygon
       points="368.091,714.821 409.035,503.432 236.727,537.831 "
       id="polygon4583" />
  </g>
  <path
     style="fill:#784421;fill-opacity:1;stroke:none"
     d="m 305.0615,626.99927 c -34.00678,-45.82986 -62.10063,-84.49558 -62.43079,-85.92382 -0.40929,-1.77059 25.69874,-7.84449 82.05743,-19.09025 79.18092,-15.79969 82.61093,-16.30087 81.54551,-11.91516 -0.61171,2.51805 -9.50308,48.02234 -19.75861,101.12065 -10.25552,53.0983 -18.85715,97.12585 -19.11472,97.83898 -0.25757,0.71314 -28.29204,-36.20054 -62.29882,-82.0304 z"
     id="path4593" />
  <path
     style="fill:#784421;fill-opacity:1;stroke:none"
     d="M 29.403529,702.26002 C 26.617052,680.4926 2.0463663,471.12854 2.2443687,470.83987 2.4022925,470.60963 43.301108,483.78929 93.130625,500.128 l 90.599125,29.70676 -71.80889,81.35593 c -72.665546,82.3265 -82.278424,92.93563 -82.517331,91.06933 z"
     id="path4595" />
  <path
     style="fill:#917c6f;fill-opacity:1;stroke:none"
     d="m 2.2487608,1016.6176 c 0.6250646,-2.8356 6.5540716,-52.99301 13.1755712,-111.46081 6.621499,-58.4678 12.749506,-108.92528 13.61779,-112.12774 1.484199,-5.4741 6.205267,-0.65294 78.868728,80.54097 l 77.29003,86.36362 -89.222229,29.92012 c -49.07223,16.45604 -90.492166,30.37004 -92.0443031,30.91984 -1.9852271,0.7033 -2.4850619,-0.5291 -1.6855871,-4.156 z"
     id="path4597" />
  <path
     style="fill:#917c6f;fill-opacity:1;stroke:none"
     d="m 329.68681,657.16079 c -50.3397,-66.94487 -83.20158,-112.37314 -83.20158,-115.01786 0,-1.20872 7.07797,-3.81483 15.72881,-5.79135 28.31876,-6.47018 133.62104,-27.12699 138.28533,-27.12699 4.08276,0 4.40064,0.84403 3.06405,8.13559 -0.82021,4.47458 -9.44971,48.8357 -19.17665,98.58027 l -17.68535,90.44468 -37.01461,-49.22434 z"
     id="path4599" />
  <path
     style="fill:#917c6f;fill-opacity:1;stroke:none"
     d="M 29.622216,697.2716 C 29.53425,693.23483 6.8438436,498.18824 4.5436797,481.69667 l -1.2674434,-9.08723 15.8417847,4.91636 c 58.595726,18.18471 160.112969,52.33256 160.112969,53.858 0,1.01153 -29.29378,34.91401 -65.09728,75.33884 -85.329334,96.34319 -84.40677,95.35471 -84.511494,90.54896 z"
     id="path4601" />
  <path
     style="fill:#917c6f;fill-opacity:1;stroke:none"
     d="m 325.67167,965.038 c -45.41187,-8.00858 -82.08029,-15.4645 -81.63832,-16.59982 0.4413,-1.13358 28.26503,-40.40004 61.83051,-87.25881 47.13862,-65.80741 61.39362,-84.32339 62.63398,-81.35593 1.48463,3.55185 42.86875,195.36446 42.86875,198.69377 0,1.83846 10.75532,3.5302 -85.69492,-13.47921 z"
     id="path4603" />
  <path
     style="fill:#6c5d53;fill-opacity:1;stroke:none"
     d="m 226.52962,922.80188 -12.232,-24.57343 54.28157,-75.72227 c 29.85486,-41.64725 54.55571,-76.0148 54.89077,-76.37234 0.47383,-0.50562 39.32612,22.18617 41.8341,24.43333 0.55075,0.49348 -121.69471,171.87615 -124.98566,175.22431 -0.85623,0.87111 -7.06118,-9.47421 -13.78878,-22.9896 z"
     id="path4605" />
  <path
     style="fill:#6c5d53;fill-opacity:1;stroke:none"
     d="m 270.77238,668.98424 c -28.72485,-38.74605 -53.3304,-72.23755 -54.67902,-74.42554 -2.01261,-3.26526 -0.36687,-8.41065 9.18333,-28.71173 l 11.63536,-24.73355 61.73574,83.16348 c 33.95466,45.7399 62.87355,84.74093 64.26421,86.66895 2.16308,2.99891 -0.047,5.12197 -15.29361,14.69151 -9.80215,6.1523 -19.35139,11.77286 -21.22055,12.49013 -2.53705,0.97355 -16.63659,-16.55237 -55.62546,-69.14325 l 0,0 z"
     id="path4607" />
  <path
     style="fill:#6c5d53;fill-opacity:1;stroke:none"
     d="M 53.953233,726.13321 C 43.00612,717.73021 33.553157,710.05211 32.946647,709.07076 31.781436,707.18541 182.78161,535.25848 185.60269,535.25848 c 0.90489,0 6.51699,12.56071 12.47134,27.91269 l 10.82608,27.91268 -65.84084,74.59579 c -36.21246,41.02769 -66.597142,74.85138 -67.521516,75.16376 -0.924375,0.31239 -10.63741,-6.3072 -21.584521,-14.71019 l 0,0 z"
     id="path4609" />
  <path
     style="fill:#6c5d53;fill-opacity:1;stroke:none"
     d="M 109.74635,870.07066 C 67.420529,822.78492 32.790314,783.34383 32.790314,782.42378 c 0,-3.15708 42.64302,-35.08507 44.332041,-33.1926 107.453005,120.39569 132.481515,148.6401 132.481515,149.504 0,2.02295 -20.11959,54.16681 -21.50329,55.72998 -0.76901,0.86876 -36.02841,-37.10877 -78.35423,-84.3945 z"
     id="path4611" />
  <path
     style="fill:#c87137;fill-opacity:1;stroke:none"
     d="m 239.97675,853.4936 c 0,-0.85136 13.31532,-25.4534 29.5896,-54.67119 l 29.5896,-53.12325 9.58929,0 c 7.075,0 9.17145,0.71105 7.99572,2.71187 -2.29995,3.91395 -72.60604,102.11274 -74.86724,104.56949 -1.04333,1.13356 -1.89697,1.36444 -1.89697,0.51308 z"
     id="path4613" />
  <path
     style="fill:#c87137;fill-opacity:1;stroke:none"
     d="m 240.47465,679.95817 c -25.52155,-27.58835 -26.48773,-28.98112 -26.50935,-38.21381 -0.0124,-5.27006 0.32336,-9.17514 0.746,-8.67797 5.83909,6.86877 53.59164,74.18229 53.02633,74.74761 -0.42684,0.42683 -12.69518,-12.10829 -27.26298,-27.85583 z"
     id="path4615" />
  <path
     style="fill:#c87137;fill-opacity:1;stroke:none"
     d="m 253.95545,667.60137 -38.92785,-41.10086 -1.62175,-12.53627 c -0.89196,-6.89495 -1.33301,-13.40972 -0.98011,-14.47729 0.3529,-1.06756 18.95525,22.71412 41.33854,52.84818 22.3833,30.13407 40.34188,55.14423 39.90796,55.57815 -0.43392,0.43392 -18.30647,-17.70644 -39.71679,-40.31191 z"
     id="path4617" />
  <path
     style="fill:#c87137;fill-opacity:1;stroke:none"
     d=""
     id="path4619" />
  <path
     style="fill:#c87137;fill-opacity:1;stroke:none"
     d="m 110.99014,707.53786 c 17.84433,-20.18684 40.73055,-46.14878 50.85825,-57.69318 10.1277,-11.5444 18.76701,-20.63682 19.19846,-20.20537 1.57712,1.57712 -76.01939,111.72087 -78.7076,111.72087 -1.52562,0 -7.503234,0.64823 -13.283595,1.44052 l -10.509748,1.44052 32.444233,-36.70336 z"
     id="path4621" />
  <path
     style="fill:#c87137;fill-opacity:1;stroke:none"
     d="m 157.89791,834.421 c -27.84167,-31.09786 -50.2959,-56.85931 -49.8983,-57.24769 0.58565,-0.57206 38.83477,32.39059 93.78301,80.8211 7.7702,6.84853 8.0064,7.48918 7.38178,20.02153 l -0.64527,12.94661 -50.62122,-56.54155 z"
     id="path4623" />
  <path
     style="fill:#c87137;fill-opacity:1;stroke:none"
     d="m 176.31738,821.22489 c -17.71096,-20.237 -31.68036,-37.31594 -31.0431,-37.95319 0.63725,-0.63726 14.78849,11.18543 31.44719,26.27264 29.78701,26.97705 30.3037,27.60061 31.20324,37.65746 0.50307,5.6244 0.84262,10.35925 0.75455,10.5219 -0.0881,0.16265 -14.65092,-16.26181 -32.36188,-36.49881 z"
     id="path4625" />
  <path
     style="fill:#c87137;fill-opacity:1;stroke:none"
     d="m 237.80726,820.86997 c 0,-0.89605 9.51865,-18.17172 21.15255,-38.39036 20.76961,-36.09567 21.28484,-36.76134 28.46088,-36.77081 l 7.30834,-0.01 -5.27533,7.05085 c -2.90144,3.87797 -14.9031,20.23051 -26.67037,36.33898 -23.87453,32.68238 -24.97607,34.08404 -24.97607,31.78098 z"
     id="path4627" />
  <path
     style="fill:#c87137;fill-opacity:1;stroke:none"
     d="m 209.60387,800.18606 0,-30.12327 13.55018,-11.09707 13.55017,-11.09707 17.90745,0 c 9.8491,0 17.90746,0.45364 17.90746,1.00809 0,1.4918 -60.81095,81.43259 -61.94577,81.43259 -0.53322,0 -0.96949,-13.55547 -0.96949,-30.12327 z"
     id="path4629" />
  <path
     style="fill:#c87137;fill-opacity:1;stroke:none"
     d="m 264.92591,742.2686 c -2.38644,-0.36861 -9.92327,-1.27852 -16.74851,-2.02203 -12.09042,-1.31708 -12.73844,-1.73306 -25.2004,-16.17647 l -12.79087,-14.82463 1.09255,-21.36637 c 0.60091,-11.75151 1.69024,-23.00548 2.42074,-25.00882 1.2831,-3.51881 7.81849,4.97447 50.74062,65.94165 5.69887,8.09476 9.11582,14.58479 7.59322,14.4223 -1.5226,-0.1625 -4.72091,-0.59703 -7.10735,-0.96563 z"
     id="path4631" />
  <path
     style="fill:#c87137;fill-opacity:1;stroke:none"
     d="m 139.2813,734.23452 c 10.8838,-12.93337 69.10994,-75.08132 69.74674,-74.44452 0.3707,0.3707 -0.81247,10.8214 -2.62925,23.22378 -3.41339,23.30164 -12.88565,53.7665 -17.14751,55.15012 -1.33489,0.43338 -14.26803,1.08576 -28.74032,1.44974 l -26.31326,0.66179 5.0836,-6.04091 z"
     id="path4633" />
  <path
     style="fill:#c87137;fill-opacity:1;stroke:none"
     d="m 173.72536,791.84704 c -17.85326,-21.04547 -34.15019,-40.41247 -36.2154,-43.03777 l -3.75493,-4.77326 14.60239,1.09749 c 40.86232,3.07115 39.57169,2.66889 46.91226,14.62177 5.96739,9.71687 6.9055,13.73612 9.33959,40.01441 1.48824,16.0669 2.45179,29.46665 2.14123,29.77721 -0.31056,0.31056 -15.17187,-16.65437 -33.02514,-37.69985 l 0,0 z"
     id="path4635" />
  <path
     style="fill:#c87137;fill-opacity:1;stroke:none"
     d="m 518.96781,834.31144 c -0.68031,-6.37743 -2.70649,-43.81228 -4.50263,-83.18855 -1.79614,-39.37627 -3.82112,-78.18305 -4.49996,-86.23729 l -1.23425,-14.64406 87.99577,0 87.99578,0 0.0574,12.47457 c 0.0316,6.86102 1.45069,41.72663 3.15362,77.47915 1.70293,35.75251 2.89745,65.10916 2.65448,65.237 -0.24296,0.12784 -37.05192,8.86375 -81.79769,19.41312 -44.74576,10.54938 -82.9826,19.60384 -84.97075,20.12103 -2.93779,0.76423 -3.8465,-1.23141 -4.85175,-10.65497 z"
     id="path4637" />
  <path
     style="fill:#c87137;fill-opacity:1;stroke:none"
     d="m 485.1293,1015.3358 c 0,-4.4954 32.84167,-160.55813 34.34722,-163.21703 1.14552,-2.02306 31.81148,-10.25321 86.22376,-23.14079 46.44528,-11.00059 84.79963,-19.64761 85.23189,-19.2156 0.59107,0.59073 30.4484,134.29586 44.67762,200.07242 l 1.52528,7.0508 -126.00289,0 c -69.30158,0 -126.00288,-0.6974 -126.00288,-1.5498 z"
     id="path4639" />
  <path
     style="fill:#c87137;fill-opacity:1;stroke:none"
     d="m 767.27812,1010.9195 c 0.0632,-2.0881 10.17488,-48.70508 22.47038,-103.59322 22.10025,-98.65738 22.41471,-99.78963 27.54609,-99.18518 10.42002,1.22741 163.62155,37.9811 165.52324,39.70972 1.07787,0.97975 9.06668,36.05177 17.75297,77.93781 8.6862,41.88605 16.4243,79.02997 17.1957,82.54197 l 1.4025,6.3855 -126.00292,0 c -118.6002,0 -125.99613,-0.223 -125.88796,-3.7966 z"
     id="path4641" />
  <path
     style="fill:#c87137;fill-opacity:1;stroke:none"
     d="m 896.91665,823.00625 c -44.97459,-10.89856 -82.35192,-20.42001 -83.06074,-21.15879 -0.70882,-0.73877 0.20887,-33.93199 2.03931,-73.76271 1.83045,-39.83072 3.32982,-74.12796 3.33193,-76.2161 0.004,-3.55288 5.61054,-3.79661 87.34088,-3.79661 l 87.33705,0 -4.7401,92.74577 c -2.60705,51.01017 -4.81041,94.94237 -4.89636,97.62712 -0.086,2.68474 -1.37661,4.76785 -2.86814,4.62912 -1.49152,-0.13874 -39.50925,-9.16924 -84.48383,-20.0678 z"
     id="path4643" />
  <path
     style="fill:#c87137;fill-opacity:1;stroke:none"
     d="m 818.33471,635.59747 c -2.45209,-15.61372 -12.19659,-98.81519 -11.6186,-99.20322 0.32047,-0.21515 39.38946,-6.7157 86.81997,-14.44567 63.33121,-10.32138 86.23729,-13.32887 86.23729,-11.32266 0,1.5025 2.92881,29.83335 6.50847,62.95745 3.57966,33.1241 6.50847,62.45855 6.50847,65.18766 l 0,4.96203 -86.58896,0 -86.58897,0 -1.27767,-8.13559 z"
     id="path4645" />
  <path
     style="fill:#c87137;fill-opacity:1;stroke:none"
     d="m 510.1277,639.93645 c 0.6519,-4.47458 4.07025,-34.89155 7.59632,-67.59328 3.52608,-32.70173 6.87881,-59.92545 7.45051,-60.49715 1.29176,-1.29176 168.79534,25.72535 170.67259,27.52825 0.74904,0.71937 -1.59512,25.47065 -5.20925,55.00286 l -6.57116,53.69491 -87.56214,0 -87.56214,0 1.18527,-8.13559 z"
     id="path4647" />
  <path
     style="fill:#c87137;fill-opacity:1;stroke:none"
     d="m 728.11235,408.34323 0,-50.98305 65.08474,0 65.08475,0 0,50.98305 0,50.98305 -65.08475,0 -65.08474,0 0,-50.98305 z"
     id="path4649" />
  <path
     style="fill:#c87137;fill-opacity:1;stroke:none"
     d="m 728.11235,279.25848 0,-73.76271 65.08474,0 65.08475,0 0,73.76271 0,73.76272 -65.08475,0 -65.08474,0 0,-73.76272 z"
     id="path4651" />
  <path
     style="fill:#c87137;fill-opacity:1;stroke:none"
     d="m 728.11235,138.24153 0,-65.084741 65.08474,0 65.08475,0 0,65.084741 0,65.08475 -65.08475,0 -65.08474,0 0,-65.08475 z"
     id="path4653" />
  <path
     style="fill:#c87137;fill-opacity:1;stroke:none"
     d="m 402.68862,122.31535 0,-41.960084 45.90912,-1.429747 c 25.25002,-0.786361 73.57544,-1.429747 107.38983,-1.429747 l 61.48071,0 0,43.389828 0,43.38983 -107.38983,0 -107.38983,0 0,-41.96008 z"
     id="path4655" />
  <path
     style="fill:#c87137;fill-opacity:1;stroke:none"
     d="m 402.68862,227.19069 0,-60.74577 107.38983,0 107.38983,0 0,60.74577 0,60.74576 -107.38983,0 -107.38983,0 0,-60.74576 z"
     id="path4657" />
  <path
     style="fill:#c87137;fill-opacity:1;stroke:none"
     d="m 402.68862,376.8856 0,-84.61017 107.04548,0 107.04548,0 1.4234,43.93221 c 0.78286,24.16271 1.42596,62.23728 1.42909,84.61017 l 0.006,40.67796 -108.47457,0 -108.47458,0 0,-84.61017 z"
     id="path4659" />
  <path
     style="fill:#000000;stroke:#000000;stroke-width:1px;stroke-linecap:butt;stroke-linejoin:miter;stroke-opacity:1"
     d="m 462.1017,463.72881 c 1.02106,-39.84932 -0.3819,-82.0405 42.03389,-81.8983 44.25454,-0.28764 40.50356,44.11952 44.74577,81.08474 l -86.77966,0.54237"
     id="path4661"
     sodipodi:nodetypes="cccc" />
  <path
     style="fill:#c87137;fill-opacity:1;stroke:none"
     d="m 112.10363,738.91266 c 47.63996,-53.22602 71.71027,-79.50546 72.29051,-78.92522 0.3982,0.3982 -11.89101,18.55136 -27.30936,40.34034 -15.41835,21.78899 -28.08048,39.69743 -28.13807,39.79654 -0.0576,0.0991 -4.58994,0.67045 -10.07189,1.26963 l -9.96717,1.08944 3.19598,-3.57073 z"
     id="path4663" />
  <path
     style="fill:#c87137;fill-opacity:1;stroke:none"
     d=""
     id="path2883" />
  <path
     style="fill:#c87137;fill-opacity:1;stroke:none"
     d="M 163.47353,807.99838 C 138.1292,778.957 117.47229,755.11652 117.56928,755.01953 c 0.097,-0.097 20.6003,18.24366 45.56291,40.75699 24.96262,22.51334 45.41051,40.94909 45.43978,40.96835 0.0995,0.0655 1.16374,23.8123 1.07269,23.93449 -0.0498,0.0668 -20.82681,-23.6396 -46.17113,-52.68098 l 0,0 z m 44.87521,42.64561 c -0.79938,-10.97226 -1.7136,-12.97634 -9.45811,-20.7332 -11.65223,-11.67082 -45.17355,-41.36053 -51.91557,-45.98141 -1.52812,-1.04736 -2.05511,-0.85741 -1.35851,0.48967 1.71189,3.31043 17.47538,22.08548 41.38605,49.29271 15.79334,17.97076 21.45674,24.14799 21.63875,23.60197 0.0873,-0.26177 -0.0444,-3.26315 -0.29261,-6.66974 l 0,0 z"
     id="path2885" />
  <path
     style="fill:#c87137;fill-opacity:1;stroke:none"
     d="m 148.36808,825.40899 c -34.55941,-38.60162 -62.776566,-70.23201 -62.70479,-70.28977 0.128244,-0.10319 121.66021,105.98755 123.32273,107.65398 0.82087,0.82281 0.87898,1.39575 1.65411,16.30975 0.44185,8.50134 0.74933,15.69409 0.6833,15.98389 -0.066,0.28979 -28.39594,-31.05624 -62.95535,-69.65785 l 0,0 z m 60.56841,61.13203 c 0.16589,-2.47847 0.31235,-7.95794 0.32547,-12.17662 0.0267,-8.60742 -0.115,-9.17047 -3.15678,-12.53906 -2.22966,-2.46921 -58.07527,-51.37411 -79.8505,-69.92636 -22.201,-18.91501 -22.66249,-19.08629 -9.15916,-3.39936 12.88065,14.96355 90.79601,102.46361 91.28953,102.51945 0.13739,0.0155 0.38554,-1.99958 0.55144,-4.47805 z"
     id="path2887" />
  <path
     style="fill:#c87137;fill-opacity:1;stroke:none"
     d="m 78.326333,742.76651 c 0.732165,-0.8158 28.584047,-32.33275 61.893067,-70.03768 33.30902,-37.70492 60.63455,-68.48171 60.7234,-68.39286 0.0889,0.0888 -21.28388,31.1975 -47.49497,69.13032 -26.21109,37.93282 -47.67431,69.00301 -47.69605,69.04486 -0.076,0.14638 -20.647373,1.27994 -20.782136,1.14518 -0.114582,-0.11458 3.747886,-0.60502 16.086926,-2.04265 1.68756,-0.19662 2.00211,-0.40942 3.80295,-2.57285 12.3326,-14.81569 71.63164,-99.21028 75.69224,-107.72546 2.75624,-5.77989 -3.52867,0.96671 -49.92691,53.59451 -48.925838,55.49478 -52.097405,59.0448 -52.885979,59.19666 -0.589987,0.11362 -0.468536,-0.16341 0.587462,-1.34003 l 0,0 z"
     id="path2889" />
  <path
     style="fill:#c87137;fill-opacity:1;stroke:none"
     d="m 250.27861,692.00023 -37.15766,-39.91093 -0.28902,-4.68414 c -0.15896,-2.57628 -0.24525,-7.84113 -0.19176,-11.69967 l 0.0973,-7.01553 37.51655,51.44346 c 20.6341,28.29391 37.44134,51.51868 37.34942,51.6106 -0.0919,0.0919 -16.88808,-17.79278 -37.3248,-39.74379 l 0,0 z m 15.01984,11.50889 c -6.57875,-9.88205 -37.40919,-53.29544 -46.71243,-65.77735 -1.95112,-2.61777 -3.72007,-4.70943 -3.93101,-4.64815 -0.55226,0.16046 -1.03809,6.7535 -0.79032,10.72529 0.33759,5.41189 1.89368,8.51474 7.84717,15.64736 4.22935,5.06702 14.43277,16.19876 28.48993,31.08201 12.47662,13.20982 17.26275,17.919 17.49714,17.21582 0.0781,-0.23425 -1.00213,-2.14449 -2.40048,-4.24498 l 0,0 z"
     id="path2891" />
  <path
     style="fill:#c87137;fill-opacity:1;stroke:none"
     d="m 265.62159,681.37266 c -26.13321,-27.37171 -48.82768,-51.14894 -50.43215,-52.83829 l -2.91722,-3.07155 -0.25733,-13.71068 -0.25733,-13.71069 1.64049,0.0225 1.64048,0.0225 49.20868,66.36679 c 27.06476,36.50174 49.13682,66.43865 49.049,66.52647 -0.0878,0.0878 -21.5414,-22.23536 -47.67462,-49.60707 l 0,0 z m 26.88498,24.15481 c -7.00246,-10.59945 -42.6012,-59.06319 -60.3604,-82.17399 -10.95695,-14.25876 -19.00733,-24.16148 -19.64199,-24.16148 -0.75327,0 -0.18897,7.68515 1.57564,21.45843 l 0.75924,5.92604 1.47848,1.55251 c 0.81316,0.85388 10.71071,11.30339 21.99454,23.22114 36.61122,38.66799 54.79956,57.24396 55.43109,56.61242 0.12324,-0.12324 -0.43323,-1.21902 -1.2366,-2.43507 l 0,0 z"
     id="path2893" />
  <path
     style="fill:#c87137;fill-opacity:1;stroke:none"
     d="m 219.44896,849.17747 c 0,-0.10697 13.3564,-23.39116 29.68088,-51.74264 l 29.68089,-51.54813 2.6303,-0.0982 2.6303,-0.0982 -1.55598,0.71749 c -3.0832,1.42172 -6.773,6.75274 -17.68963,25.55797 -8.63048,14.86706 -21.42838,37.54312 -24.85357,44.03699 -1.90401,3.60983 -2.48072,5.03189 -2.16765,5.34496 0.91778,0.91779 1.67922,-0.0673 31.49947,-40.75285 11.67251,-15.92548 22.23733,-30.29293 23.47738,-31.92767 l 2.25464,-2.97224 -4.52354,-0.0598 -4.52355,-0.0598 5.17746,-0.27927 c 2.84761,-0.1536 5.19267,-0.25614 5.21125,-0.22788 0.0483,0.0735 -76.29468,103.69782 -76.64102,104.02881 -0.1582,0.15118 -0.28763,0.18736 -0.28763,0.0804 z"
     id="path2895" />
  <path
     style="fill:#c87137;fill-opacity:1;stroke:none"
     d="m 209.91853,831.37871 c 0.0316,-1.6699 0.12936,-2.56157 0.21723,-1.9815 0.0879,0.58006 0.25599,1.05466 0.37358,1.05466 0.84781,0 22.67826,-28.13351 46.25041,-59.6042 14.06687,-18.78037 16.13664,-21.71573 15.65306,-22.19931 -0.37436,-0.37435 -11.83649,-0.97218 -20.55679,-1.07217 -5.12224,-0.0587 -4.26057,-0.14385 7.86207,-0.77667 7.48814,-0.3909 14.35534,-0.6699 15.26043,-0.62001 l 1.64563,0.0907 -33.226,43.91253 c -18.2743,24.15189 -33.296,43.98444 -33.38154,44.07233 -0.0855,0.0879 -0.12968,-1.20648 -0.0981,-2.87636 z"
     id="path2897" />
  <path
     style="fill:#c87137;fill-opacity:1;stroke:none"
     d=""
     id="path2899" />
  <path
     style="fill:#c87137;fill-opacity:1;stroke:none"
     d="m 254.58539,742.04894 -19.13101,-2.03196 -1.06902,-1.09205 c -0.58796,-0.60063 -6.49552,-7.455 -13.12791,-15.23192 -12.05663,-14.1372 -12.05887,-14.14016 -11.91173,-15.72414 0.081,-0.87135 0.82941,-12.62952 1.66325,-26.12927 0.83385,-13.49975 1.56387,-25.23532 1.62227,-26.07906 0.10352,-1.49545 0.90285,-0.41448 31.76212,42.95375 17.41076,24.46829 31.7884,44.70353 31.95031,44.96719 0.42911,0.69883 -0.37956,0.63815 -21.75828,-1.63254 z m 17.78753,0.482 c -0.002,-1.20133 -2.08898,-5.22059 -5.08953,-9.80012 -3.00213,-4.58195 -27.11014,-38.68538 -35.29767,-49.93243 -13.00739,-17.86801 -17.44257,-22.70304 -18.44036,-20.10284 -0.78303,2.04056 -2.15531,18.39573 -2.90951,34.67643 -0.21986,4.74601 -0.4805,9.36022 -0.57921,10.2538 -0.1794,1.62411 -0.17723,1.62729 6.02866,8.82086 9.51459,11.02885 15.06349,17.13841 17.30459,19.05304 4.10321,3.50548 5.14371,3.76296 25.56117,6.32526 14.53763,1.8244 13.42331,1.76579 13.42186,0.706 z"
     id="path2901" />
  <path
     style="fill:#c87137;fill-opacity:1;stroke:none"
     d="m 220.99517,884.05951 c -0.016,-0.36433 76.67379,-138.03155 77.23681,-138.64917 0.30084,-0.33 3.88326,-0.66187 11.66061,-1.08023 6.1745,-0.33213 11.37152,-0.54923 11.54894,-0.48243 0.17742,0.0668 -21.96486,31.19513 -49.20506,69.17408 -53.72661,74.90697 -51.22374,71.43714 -51.2413,71.03775 z m 20.34104,-30.32126 c 1.10772,-0.85948 28.00149,-38.03825 54.85121,-75.828 18.62958,-26.22028 21.12534,-29.85641 20.98722,-30.57683 -0.24046,-1.25418 -2.45611,-1.59421 -10.53546,-1.61683 l -7.72987,-0.0217 -15.60385,28.02747 c -29.08223,52.23716 -43.53018,78.8096 -43.53018,80.05998 0,0.57614 0.79029,0.55379 1.56093,-0.0441 l 0,0 z"
     id="path2903" />
  <path
     style="fill:#c87137;fill-opacity:1;stroke:none"
     d="m 132.04662,740.02856 c 4.57492,-5.30238 78.78513,-85.19112 78.87771,-84.91339 0.063,0.18897 -1.53036,12.1878 -3.54077,26.66407 l -3.6553,26.3205 -6.15589,15.8241 c -3.38574,8.70326 -6.27727,15.93179 -6.42561,16.0634 -0.14834,0.13161 -12.43674,0.43652 -27.30756,0.67757 -14.87081,0.24105 -28.40086,0.53632 -30.06676,0.65617 l -3.02893,0.21789 1.30311,-1.51031 0,0 z m 40.09513,-0.68289 c 15.30407,-0.60438 17.49896,-0.83661 18.39671,-1.94644 1.44212,-1.78282 4.60978,-9.16265 6.84095,-15.93768 2.32628,-7.06383 5.0054,-16.97959 6.71597,-24.8566 2.59464,-11.94803 5.81262,-36.81749 4.764,-36.81749 -0.79345,0 -20.91584,21.0246 -43.8722,45.83924 -16.20454,17.51628 -19.04118,20.6411 -24.71014,27.22047 -2.72619,3.164 -5.31381,6.16321 -5.75026,6.66491 l -0.79355,0.91217 12.08074,-0.25797 c 6.64441,-0.14188 18.49191,-0.51116 26.32778,-0.82061 l 0,0 z"
     id="path2905" />
  <path
     style="fill:#c87137;fill-opacity:1;stroke:none"
     d="m 108.82595,741.38039 c 3.66732,-4.36087 91.98692,-102.27443 92.12691,-102.13445 0.0953,0.0953 -8.23961,12.01001 -18.52213,26.47703 -10.28251,14.46703 -18.7753,26.22387 -18.87285,26.12631 -0.0976,-0.0976 3.57301,-5.59291 8.15682,-12.21191 8.28629,-11.96535 12.83434,-18.88876 12.83434,-19.53745 0,-0.1867 -0.33739,-0.15888 -0.74977,0.0618 -1.50441,0.80513 -25.59186,27.046 -59.24735,64.54405 -8.84652,9.85656 -16.23974,17.92103 -16.42938,17.92103 -0.18963,0 0.1269,-0.5609 0.70341,-1.24643 z"
     id="path2907" />
  <path
     style="fill:#c87137;fill-opacity:1;stroke:none"
     d="m 169.52174,788.55101 c -21.20424,-24.9419 -38.50057,-45.41226 -38.4363,-45.48967 0.198,-0.2385 56.67403,4.21469 57.49256,4.53334 0.46451,0.18084 3.51216,4.91383 7.69588,11.95172 l 6.92681,11.65232 2.58291,31.20481 c 1.42061,17.16264 2.51731,31.27041 2.43711,31.35061 -0.0802,0.0802 -17.49473,-20.26122 -38.69897,-45.20313 z m 36.32243,23.6195 c -2.52606,-30.48238 -3.87778,-39.46667 -6.93268,-46.0786 -1.95611,-4.23373 -5.86018,-10.57121 -7.984,-12.96043 -4.14602,-4.6641 -7.96124,-5.47914 -35.71739,-7.63026 -6.9608,-0.53947 -14.63076,-1.14359 -17.04434,-1.34249 -2.41358,-0.1989 -4.46046,-0.28952 -4.54861,-0.20137 -0.53924,0.53925 62.36392,74.70487 70.8511,83.53658 l 2.13294,2.21953 0.11144,-2.85918 c 0.0613,-1.57255 -0.32951,-8.18025 -0.86846,-14.68378 l 0,0 z"
     id="path2909" />
  <path
     style="fill:#917c6f;fill-opacity:1;stroke:none"
     d="m 406.98806,978.99571 c -15.37356,-2.49728 -74.36363,-12.85372 -101.2481,-17.77536 -27.43953,-5.02325 -53.42432,-10.31077 -59.36001,-12.07889 l -2.02444,-0.60303 0.6729,-1.13914 c 2.7806,-4.70718 75.74288,-106.88863 96.37671,-134.97265 16.26915,-22.14339 25.64658,-33.54443 26.71321,-32.4778 0.10073,0.10073 0.43004,1.10706 0.73178,2.23628 3.54847,13.27959 42.34933,193.54568 42.35603,196.78315 7.6e-4,0.29311 -2.48311,0.30926 -4.21808,0.0274 l 0,2e-5 z"
     id="path2911" />
  <path
     style="fill:#917c6f;fill-opacity:1;stroke:none"
     d="m 326.7471,966.05147 c -47.19106,-8.2657 -85.91055,-15.13716 -86.04331,-15.26991 -0.13276,-0.13276 28.55347,-40.3982 63.74719,-89.47876 62.41819,-87.04735 63.99573,-89.20565 64.2805,-87.9449 0.16057,0.71085 10.12584,47.37186 22.14504,103.69111 12.0192,56.31926 21.94519,102.78696 22.05775,103.26156 0.11256,0.4746 0.0719,0.84188 -0.0903,0.81617 -0.16222,-0.0257 -38.90581,-6.80958 -86.09688,-15.07527 l 0,0 z m 85.07949,12.99058 c -0.12608,-0.32855 -1.18245,-5.35071 -2.3475,-11.16034 -5.45837,-27.21869 -36.02825,-168.68014 -39.47824,-182.68467 -0.49365,-2.00387 -1.00586,-4.118 -1.13825,-4.69806 -0.47327,-2.07365 -1.96449,-1.1347 -6.58225,4.14451 -8.02356,9.17286 -29.85463,38.94239 -76.34229,104.10275 -33.13033,46.43778 -41.94411,58.9941 -41.94411,59.7546 0,1.76565 62.2519,13.68609 149.37931,28.60421 14.37487,2.4613 13.98303,2.40293 16.62808,2.47691 1.71603,0.048 2.01672,-0.0409 1.82525,-0.53991 l 0,0 z"
     id="path2913" />
  <path
     style="fill:#917c6f;fill-opacity:1;stroke:none"
     d="M 108.54354,870.46222 29.338054,781.99486 48.849927,766.69965 c 19.159001,-15.01859 19.540358,-15.29308 21.087018,-15.17771 l 1.575148,0.11749 -3.780025,2.49285 c -12.971628,8.55453 -35.055181,26.25374 -35.055181,28.09553 0,1.07741 9.530061,12.07549 49.264421,56.85316 59.528312,67.08401 105.182152,116.75321 106.229412,115.57256 0.84491,-0.95252 8.9562,-21.23167 15.85388,-39.63648 5.64105,-15.0518 6.0078,-16.22274 5.33639,-17.03721 -2.46233,-2.987 -9.00597,-10.53314 -17.31875,-19.97204 C 181.5144,866.05378 82.500673,754.82422 80.491163,752.6941 c -0.646715,-0.68554 -0.983373,-1.24643 -0.748132,-1.24643 0.517953,0 131.359789,146.06941 131.418809,146.71353 0.0548,0.59825 -22.90395,60.74981 -23.19111,60.76029 -0.12194,0.004 -35.86418,-39.80222 -79.42719,-88.45927 l 0,0 z"
     id="path2915" />
  <path
     style="fill:#917c6f;fill-opacity:1;stroke:none"
     d="M 0.96338645,1021.5395 C 1.0825472,1020.748 7.3239661,967.29022 14.833206,902.74456 c 7.50924,-64.54567 13.736671,-117.74512 13.838736,-118.221 0.154164,-0.71879 13.560254,14.07206 79.205058,87.38641 43.46072,48.53841 78.95786,88.31328 78.88253,88.3886 -0.12634,0.12635 -56.11745,19.00376 -148.474971,50.05833 l -37.53782849,12.6219 0.21665594,-1.4393 z M 63.137725,1001.0802 c 32.710459,-10.98836 73.452695,-24.64641 90.538315,-30.35119 17.08562,-5.70479 31.20294,-10.49508 31.37182,-10.64508 0.34607,-0.3074 -103.125107,-116.12324 -127.80704,-143.0551 -10.116135,-11.03829 -20.520061,-21.69372 -23.201736,-23.76262 -2.426186,-1.87179 -4.180592,-2.34912 -4.746641,-1.29145 -1.016874,1.90005 -4.962248,34.28935 -18.865371,154.87408 -4.7248639,40.97975 -6.9392388,59.52216 -8.0538947,67.44066 -0.7762878,5.5146 -0.65357,6.7696 0.66198,6.7696 0.3459561,0 27.3921117,-8.9905 60.1025677,-19.9789 z"
     id="path2917" />
  <path
     style="fill:#917c6f;fill-opacity:1;stroke:none"
     d="m 328.36737,660.08191 c -21.62069,-29.12681 -40.83258,-55.01642 -42.6931,-57.53247 -2.10089,-2.84111 -3.13336,-4.52567 -2.72461,-4.44543 0.36198,0.0711 6.89032,8.58572 14.50742,18.92146 25.07805,34.02875 62.91815,84.23594 68.01237,90.24051 0.94813,1.11757 1.81403,1.94178 1.92423,1.83159 0.11019,-0.1102 5.0582,-25.08762 10.99557,-55.50538 5.93737,-30.41776 10.98325,-55.3677 11.21307,-55.4443 0.28636,-0.0955 0.25252,0.68048 -0.10754,2.46587 -0.28895,1.43284 -5.27765,27.19809 -11.086,57.25612 -5.80835,30.05803 -10.59898,54.76772 -10.64585,54.91042 -0.0469,0.1427 -17.77487,-23.57157 -39.39556,-52.69839 z"
     id="path2919" />
  <path
     style="fill:#917c6f;fill-opacity:1;stroke:none"
     d="m 365.5147,706.55635 c -6.17249,-7.25865 -47.08741,-61.74001 -81.06149,-107.93962 -32.43711,-44.10957 -41.77612,-57.13971 -41.39517,-57.75611 0.28445,-0.46024 6.4934,-2.39543 12.70233,-3.95903 12.80632,-3.22502 47.84884,-10.56058 93.43217,-19.55847 43.98311,-8.682 54.47702,-10.345 56.40116,-8.93803 0.62621,0.45789 -0.26897,5.29524 -13.75089,74.30613 -16.53152,84.62113 -24.2364,124.11647 -24.42197,125.18744 -0.1053,0.60769 -0.46082,0.35734 -1.90614,-1.34231 l 0,0 z m 8.66631,-37.37276 c 3.94925,-20.24962 12.2607,-62.87738 18.46988,-94.72834 6.20919,-31.85097 11.39536,-59.31479 11.52484,-61.03073 0.23185,-3.07249 0.21982,-3.1301 -0.79187,-3.79298 -0.83742,-0.5487 -1.51038,-0.62821 -3.64093,-0.4302 -11.20071,1.041 -132.91514,25.33608 -144.4579,28.83485 -5.94817,1.80297 -8.80606,3.19135 -8.77188,4.26142 0.0145,0.45358 0.96369,2.31526 2.10933,4.13706 2.97035,4.72344 20.04492,28.71778 33.85825,47.57987 19.14823,26.14691 84.01954,112.55313 84.2801,112.25803 0.13184,-0.14932 3.47092,-16.83936 7.42018,-37.08898 l 0,0 z"
     id="path2921" />
  <path
     style="fill:#917c6f;fill-opacity:1;stroke:none"
     d="M 29.433157,700.72774 C 28.734215,696.58641 2.3521014,471.44 2.5387354,471.20926 2.772464,470.9203 55.572428,488.01607 143.78261,516.94173 l 39.58008,12.97901 -2.40601,2.70796 c -1.32331,1.48938 -18.69998,21.17424 -38.61484,43.74413 C 50.580283,680.36799 31.247589,701.97417 29.956734,701.97417 c -0.172268,0 -0.407878,-0.56089 -0.523577,-1.24643 l 0,0 z m 4.443263,-4.41043 c 5.261395,-4.9565 16.381641,-17.24589 54.04992,-59.73254 62.30106,-70.27036 91.25349,-103.61997 91.25349,-105.1127 0,-0.86044 -6.25385,-3.17063 -39.31035,-14.52139 C 94.78682,501.47044 3.9866416,472.0471 3.3284892,472.70525 c -0.1093232,0.10932 0.1456566,2.68312 0.5666216,5.71955 2.5662885,18.51069 25.6466292,216.33852 25.7121012,220.38536 8.44e-4,0.0527 0.34348,0.0959 0.761393,0.0959 0.417914,0 1.99643,-1.16493 3.507815,-2.58873 z"
     id="path2923" />
  <path
     style="fill:#917c6f;fill-opacity:1;stroke:none"
     d=""
     id="path2925" />
  <path
     style="fill:#917c6f;fill-opacity:1;stroke:none"
     d=""
     id="path2927" />
  <path
     style="fill:#917c6f;fill-opacity:1;stroke:none"
     d="M 28.276976,702.64532 C 27.93254,700.65772 0.84563054,468.66834 0.94624852,468.56773 1.0413713,468.4726 185.03827,529.37005 185.22751,529.55929 c 0.0598,0.0598 -34.52643,39.30909 -76.85833,87.22061 -76.914435,87.05225 -76.968085,87.11185 -78.421648,87.11185 -1.341057,0 -1.471414,-0.0973 -1.670556,-1.24643 z m 2.881056,-1.06671 c 2.714666,-2.15006 18.764131,-19.9226 55.056095,-60.96693 55.956833,-63.28429 97.566843,-110.52239 97.560353,-110.75621 -0.0123,-0.44515 -164.785009,-54.27575 -178.651571,-58.36478 -1.5494743,-0.45692 -2.8721215,-0.77538 -2.939216,-0.7077 -0.1743011,0.17583 11.970187,104.81135 20.122176,173.37036 3.805658,32.00596 6.919379,58.28157 6.919379,58.39025 0,0.41512 0.514727,0.15813 1.932784,-0.96499 z"
     id="path2929" />
  <path
     style="fill:#917c6f;fill-opacity:1;stroke:none"
     d="m 260.35162,568.43507 c -12.2021,-16.44012 -22.10073,-29.97603 -21.99696,-30.0798 0.24654,-0.24654 169.43074,-33.98914 169.59529,-33.82459 0.1512,0.15121 -17.83862,93.24985 -18.06329,93.47882 -0.0862,0.0879 -0.25356,0.063 -0.37183,-0.0552 -0.11827,-0.11827 3.70533,-20.2787 8.49689,-44.80096 10.0812,-51.59365 9.62505,-45.84342 3.60712,-45.4715 -6.34167,0.39192 -15.73431,2.0494 -51.58284,9.10259 -74.00024,14.55952 -107.57611,22.10572 -107.57611,24.1778 0,0.92673 14.84732,21.61962 37.83494,52.73101 1.92643,2.60723 2.98308,4.34968 2.70273,4.45692 -0.26489,0.10133 -9.87843,-12.51315 -22.64594,-29.71505 l 0,0 z"
     id="path2931" />
  <path
     style="fill:#6c5d53;fill-opacity:1;stroke:none"
     d="M 111.80896,872.10341 C 111.42223,871.59813 99.542823,858.18204 85.410275,842.28987 57.900276,811.35465 38.969869,789.80651 35.316641,785.26918 c -1.823608,-2.26493 -2.186081,-2.93826 -1.884791,-3.50123 2.102777,-3.92907 37.985193,-30.87844 42.684186,-32.05781 0.832448,-0.20893 6.233992,5.72837 55.348894,60.83879 29.93453,33.58868 54.65193,61.38596 54.92756,61.77175 0.48453,0.67818 -0.73139,0.70142 -36.68963,0.70142 l -37.19076,0 -0.70314,-0.91869 z"
     id="path2933" />
  <path
     style="fill:#6c5d53;fill-opacity:1;stroke:none"
     d="m 68.727349,751.27673 c 0,-0.094 1.477523,-1.32467 3.283386,-2.73479 l 3.283385,-2.56386 1.989953,2.21661 c 2.213234,2.46531 2.763588,3.25298 2.272891,3.25298 -0.181747,0 -0.713235,-0.51774 -1.181085,-1.15054 -1.072913,-1.4512 -1.958758,-1.4512 -4.53013,0 -1.326901,0.74885 -2.576272,1.15054 -3.578528,1.15054 -0.84693,0 -1.539872,-0.0769 -1.539872,-0.17094 z"
     id="path2935" />
  <path
     style="fill:#6c5d53;fill-opacity:1;stroke:none"
     d="M 71.411958,828.705 C 49.580335,804.33467 31.26603,783.84224 30.713501,783.16624 l -1.004597,-1.22908 7.332604,-5.73701 c 15.579607,-12.18944 29.25216,-22.70462 30.58056,-23.51866 0.763166,-0.46767 1.796357,-0.8503 2.295978,-0.8503 0.737726,0 0.513059,0.26375 -1.195817,1.40381 -8.41545,5.61428 -21.507134,15.52267 -29.324672,22.19426 -6.118722,5.22179 -6.874176,6.04227 -6.587097,7.15409 0.12609,0.48833 2.107063,3.13144 4.402163,5.87357 5.066925,6.05386 39.74263,45.3793 59.528699,67.51103 14.609338,16.34128 15.225358,17.05703 14.674768,17.05043 -0.17065,-0.002 -18.17251,-19.94306 -40.004132,-44.31338 z"
     id="path2937" />
  <path
     style="fill:#6c5d53;fill-opacity:1;stroke:none"
     d="m 52.412444,726.30068 c -12.436558,-9.61218 -22.592131,-17.69847 -22.56794,-17.96954 0.02419,-0.27106 30.89832,-35.42262 68.609177,-78.11456 37.710849,-42.69195 68.611559,-77.67881 68.668249,-77.74859 0.0567,-0.0698 0.45327,-0.0698 0.88131,0 0.65027,0.10601 0.20451,0.75754 -2.71067,3.96203 C 129.53478,595.73641 44.490626,693.27281 34.918236,705.9552 l -2.28112,3.02223 0.882796,0.95806 c 1.302547,1.4136 14.683548,12.06573 23.49822,18.70608 7.674394,5.78135 14.587612,10.59281 17.03023,11.8527 l 1.294104,0.66749 1.908029,-1.8562 c 5.135541,-4.99605 41.206625,-45.40691 97.680215,-109.43232 17.58209,-19.93322 32.4801,-36.78735 33.10669,-37.45363 l 1.13924,-1.21142 -4.87753,-12.59514 c -2.68264,-6.92733 -6.07419,-15.59332 -7.53679,-19.25777 -2.39548,-6.00173 -2.89667,-7.79077 -1.88673,-6.73485 0.27943,0.29215 14.66545,36.9445 15.05945,38.36807 0.11022,0.39825 -134.236863,152.78886 -134.698175,152.78886 -0.116872,0 -10.387863,-7.86451 -22.824421,-17.47668 z"
     id="path2939" />
  <path
     style="fill:#6c5d53;fill-opacity:1;stroke:none"
     d="m 267.93208,667.02069 c -30.56799,-41.17309 -55.6886,-75.04704 -55.82358,-75.27546 -0.22655,-0.38336 17.69505,-38.32061 18.4826,-39.1248 0.96978,-0.99028 0.40509,0.54136 -2.39433,6.4942 -10.42011,22.15788 -13.15764,29.12126 -12.89204,32.79315 0.15275,2.11179 0.30865,2.36552 7.78945,12.67752 4.19847,5.78743 17.37982,23.72512 29.2919,39.86154 50.08949,67.85256 67.99279,90.86632 72.63209,93.36475 l 1.35213,0.72817 3.58726,-2.03424 c 5.70498,-3.23512 18.82905,-11.31329 24.68063,-15.19152 7.68011,-5.09011 9.66265,-7.26381 8.78007,-9.62669 -0.30622,-0.81982 -28.15935,-38.49346 -95.71759,-129.46587 -12.17908,-16.40009 -21.90536,-29.81834 -21.61394,-29.81834 0.49143,0 120.63252,161.46156 120.63194,162.12124 -2.2e-4,0.24231 -41.98413,26.89383 -42.92685,27.2501 -0.15487,0.0585 -25.29175,-33.58067 -55.85974,-74.75375 l 0,0 z"
     id="path2941" />
  <path
     style="fill:#6c5d53;fill-opacity:1;stroke:none"
     d="m 231.38588,872.7096 c 0.0791,-0.22461 20.85366,-29.29256 46.16568,-64.59544 l 46.02187,-64.18706 21.86038,13.16667 c 12.02322,7.24167 21.90526,13.29667 21.9601,13.45555 0.19085,0.55293 -73.01228,102.27911 -73.69574,102.41074 -0.44668,0.086 0.4018,-1.35554 2.48276,-4.21819 1.73874,-2.39188 13.88743,-19.44979 26.99711,-37.90648 32.19152,-45.3214 42.59673,-60.16321 42.32752,-60.37518 -4.0729,-3.20701 -40.49974,-24.40003 -41.89405,-24.37383 -0.35941,0.007 -25.57904,34.95058 -79.13833,109.65253 -10.50396,14.65043 -13.75467,18.86571 -13.0873,16.97069 z"
     id="path2943" />
  <path
     style="fill:#6c5d53;fill-opacity:1;stroke:none"
     d="m 168.00772,552.4592 c -0.48401,-0.19181 1.47904,-2.62947 8.68102,-10.77988 5.11856,-5.79261 9.45568,-10.58021 9.63805,-10.63909 0.25294,-0.0817 4.23045,9.742 8.51325,21.02605 0.0703,0.18526 -0.10227,0.33402 -0.38351,0.3306 -0.28757,-0.003 -1.33659,-1.97557 -2.39706,-4.50631 -2.4268,-5.79134 -5.88258,-12.74566 -6.33366,-12.74566 -0.6858,0 -2.80153,2.08231 -9.09866,8.95493 -8.27208,9.02806 -7.88336,8.65106 -8.61943,8.35936 z"
     id="path2945" />
  <path
     style="fill:#6c5d53;fill-opacity:1;stroke:none"
     d="m 226.1587,924.02611 c -7.0911,-14.18096 -12.81049,-25.99835 -12.70975,-26.26088 0.49847,-1.299 17.6159,-24.72015 17.92651,-24.52818 0.19794,0.12233 -0.0253,0.77119 -0.49602,1.44192 -0.47074,0.67072 -4.32208,6.05179 -8.55853,11.95793 -4.23644,5.90614 -7.82962,10.94711 -7.98484,11.20215 -0.29416,0.48334 13.75468,28.85182 18.38323,37.12081 3.43114,6.12979 6.62217,10.93019 7.26575,10.93019 0.8204,0 4.37641,-4.83077 34.90796,-47.42178 10.15369,-14.16423 18.63222,-25.64093 18.84118,-25.50378 0.20895,0.13715 -11.90725,17.38154 -26.9249,38.32085 -15.01765,20.93932 -27.40671,38.17338 -27.53125,38.29791 -0.12453,0.12454 -6.02823,-11.37617 -13.11934,-25.55714 l 0,0 z"
     id="path2947" />
  <path
     style="fill:#6c5d53;fill-opacity:1;stroke:none"
     d="m 150.99143,917.44429 c -41.0367,-45.71172 -39.89329,-44.42219 -39.38858,-44.42219 0.20073,0 3.1049,3.06169 6.45373,6.80376 24.49004,27.36584 59.20434,64.96204 66.43247,71.94754 1.71129,1.65385 3.33091,2.93425 3.59917,2.84534 0.63068,-0.20902 3.74839,-7.55644 9.37657,-22.09747 2.47855,-6.40364 4.56151,-11.47782 4.6288,-11.27596 0.12222,0.36666 -11.92525,32.05648 -13.46878,35.42846 l -0.81588,1.78237 -36.8175,-41.01185 0,0 z"
     id="path2949" />
  <path
     style="fill:#c87137;fill-opacity:1;stroke:none"
     d="m 210.4368,828.82193 c -0.15442,-0.4746 -0.35403,-13.89285 -0.44358,-29.81833 l -0.16281,-28.95542 13.53425,-11.06429 13.53426,-11.06428 16.10765,0.24428 c 8.85921,0.13436 16.83673,0.36729 17.72782,0.51761 l 1.62017,0.27332 -3.29701,4.60219 c -10.81869,15.10142 -57.48106,76.12783 -58.20932,76.12783 -0.0719,0 -0.25701,-0.38831 -0.41143,-0.86291 z"
     id="path2951" />
  <path
     style="fill:#c87137;fill-opacity:1;stroke:none"
     d="m 208.99292,793.44262 c -0.16109,-7.80454 -0.38557,-16.34735 -0.49886,-18.98401 l -0.20597,-4.79395 13.12504,-10.69573 c 7.21877,-5.88266 13.48363,-10.78072 13.9219,-10.88458 0.7088,-0.16798 0.73328,-0.12504 0.22158,0.38858 -0.3164,0.31759 -6.312,5.26449 -13.32356,10.99311 l -12.74828,10.41568 -0.0995,18.87549 -0.0995,18.87549 -0.29288,-14.19008 z"
     id="path2953" />
  <path
     style="fill:#c87137;fill-opacity:1;stroke:none"
     d="m 211.77865,596.10124 c 0,-1.06711 0.13313,-1.85793 0.29584,-1.75737 0.16272,0.10057 0.86377,0.97366 1.55789,1.94022 l 1.26205,1.75736 -1.55789,0 -1.55789,0 0,-1.94021 z"
     id="path2955" />
  <path
     style="fill:#000000;fill-opacity:1;stroke:none"
     d="m 241.54619,546.98211 c -2.50059,-3.36671 -4.6311,-6.03672 -4.73448,-5.93335 -0.10337,0.10338 -1.34551,2.64666 -2.76029,5.65175 -1.41479,3.00509 -2.77789,5.53231 -3.02912,5.61605 -0.42203,0.14068 0.63996,-2.302 4.34935,-10.00387 0.79345,-1.64746 1.57129,-2.85554 1.72852,-2.68461 0.49551,0.53864 9.57839,12.85317 9.57839,12.98633 0,0.94419 -1.33988,-0.5262 -5.13237,-5.6323 z"
     id="path2957" />
  <path
     style="fill:none;stroke:#000000;stroke-width:5.369;stroke-linecap:butt;stroke-linejoin:miter;stroke-opacity:1;stroke-miterlimit:4;stroke-dasharray:none"
     d="m 574.37289,677.42373 c 5.48832,11.93688 2.83147,25.35282 4.33898,37.9661"
     id="path3733" />
  <path
     style="fill:none;stroke:#000000;stroke-width:5.369;stroke-linecap:butt;stroke-linejoin:miter;stroke-opacity:1;stroke-miterlimit:4;stroke-dasharray:none"
     d="m 624.81356,676.88135 c 2.53866,12.09139 3.27308,24.75221 0.54238,36.88136"
     id="path3735" />
  <path
     style="fill:none;stroke:#000000;stroke-width:5.369;stroke-linecap:butt;stroke-linejoin:miter;stroke-opacity:1;stroke-miterlimit:4;stroke-dasharray:none"
     d="m 547.25424,765.28813 c 23.6476,38.9417 81.28609,35.28779 113.89831,10.84746"
     id="path3737" />
  <path
     style="fill:none;stroke:#000000;stroke-width:5.369;stroke-linecap:butt;stroke-linejoin:miter;stroke-opacity:1;stroke-miterlimit:4;stroke-dasharray:none"
     d="m 858.0339,699.11864 c -3.41833,-12.89436 7.12505,-27.26714 20.18747,-28.74238 8.88622,-0.88454 15.42805,7.06464 18.15282,14.66742 1.80997,5.00224 2.30893,10.42469 1.79526,15.70208"
     id="path3785" />
  <path
     style="fill:none;stroke:#000000;stroke-width:5.369;stroke-linecap:butt;stroke-linejoin:miter;stroke-opacity:1;stroke-miterlimit:4;stroke-dasharray:none"
     d="m 918.77967,699.66101 c -3.2599,-9.73272 3.65223,-19.9115 12.5819,-23.57249 8.35656,-4.10039 20.04966,-2.69304 25.18445,5.7446 5.31518,7.72791 5.0435,17.65913 3.45399,26.50586"
     id="path3787" />
  <path
     style="fill:none;stroke:#000000;stroke-width:5.369;stroke-linecap:butt;stroke-linejoin:miter;stroke-opacity:1;stroke-miterlimit:4;stroke-dasharray:none"
     d="m 880.81357,731.66101 c -4.97684,7.1127 -1.35028,19.91939 5.20901,24.74905 12.62461,4.85662 24.90455,-4.55685 27.30877,-9.82411 2.72403,5.03939 12.55608,8.42621 17.29005,9.26416 6.73602,0.10905 12.50234,-5.63605 13.23525,-13.00088 0.49849,-3.85497 -2.4524,-8.8143 -5.55157,-11.18822"
     id="path3791"
     sodipodi:nodetypes="cccccc" />
  <path
     style="fill:none;stroke:#000000;stroke-width:5.369;stroke-linecap:butt;stroke-linejoin:miter;stroke-opacity:1;stroke-miterlimit:4;stroke-dasharray:none"
     d="m 493.92621,177.58793 c -23.28109,30.08799 26.07918,67.99823 15.13479,90.80385"
     id="path3845"
     sodipodi:nodetypes="cc" />
  <path
     style="fill:none;stroke:#000000;stroke-width:5.369;stroke-linecap:butt;stroke-linejoin:miter;stroke-opacity:1;stroke-miterlimit:4;stroke-dasharray:none"
     d="m 519.09773,218.40348 c -12.03512,7.65508 15.54749,29.39573 -8.83322,50.93915 -16.15382,-29.38634 -20.13126,-11.55298 -29.34512,-23.82285"
     id="path3847"
     sodipodi:nodetypes="ccc" />
  <path
     style="fill:none;stroke:#000000;stroke-width:5.36899996;stroke-linecap:butt;stroke-linejoin:miter;stroke-miterlimit:4;stroke-opacity:1;stroke-dasharray:none"
     d="m 821.35647,321.90379 c 19.70026,-11.77135 -14.36685,-36.4473 -22.91614,-16.44085 -4.46244,13.62853 12.52322,18.86949 22.91614,16.44085 l 0,0 z"
     id="path3903" />
  <path
     style="fill:none;stroke:#000000;stroke-width:5.36899996;stroke-linecap:butt;stroke-linejoin:miter;stroke-miterlimit:4;stroke-opacity:1;stroke-dasharray:none"
     d="m 779.59376,320.27667 c 18.8193,-12.70055 -11.60915,-38.94487 -24.15788,-21.43697 -7.85829,12.32733 8.07725,22.42126 19.27652,19.26751"
     id="path3905" />
  <path
     style="fill:none;stroke:#000000;stroke-width:5.36899996;stroke-linecap:butt;stroke-linejoin:miter;stroke-miterlimit:4;stroke-opacity:1;stroke-dasharray:none"
     d="m 792.61071,275.25972 c 20.53548,6.99662 39.95311,-25.17599 18.51609,-36.61603 -15.63625,-14.11886 -44.92965,-1.51262 -38.76205,20.72602 1.99735,9.1783 10.56356,16.78134 20.24596,15.89001 z"
     id="path3909" />
</svg>
