<?xml version="1.0" encoding="UTF-8" standalone="no"?>
<svg
   xmlns:dc="http://purl.org/dc/elements/1.1/"
   xmlns:cc="http://creativecommons.org/ns#"
   xmlns:rdf="http://www.w3.org/1999/02/22-rdf-syntax-ns#"
   xmlns:svg="http://www.w3.org/2000/svg"
   xmlns="http://www.w3.org/2000/svg"
   xmlns:sodipodi="http://sodipodi.sourceforge.net/DTD/sodipodi-0.dtd"
   xmlns:inkscape="http://www.inkscape.org/namespaces/inkscape"
   width="1024"
   height="1024"
   viewBox="0 0 1024 1024"
   version="1.1"
   id="svg2"
   inkscape:version="0.47 r22583"
   sodipodi:docname="tile_matrix_xs.unfold.svg"
   inkscape:export-filename="/media/z0/python/1004/goLive/data/models/tile_matrix_xs.tex.png"
   inkscape:export-xdpi="90"
   inkscape:export-ydpi="90">
  <metadata
     id="metadata26">
    <rdf:RDF>
      <cc:Work
         rdf:about="">
        <dc:format>image/svg+xml</dc:format>
        <dc:type
           rdf:resource="http://purl.org/dc/dcmitype/StillImage" />
        <dc:title></dc:title>
      </cc:Work>
    </rdf:RDF>
  </metadata>
  <defs
     id="defs24">
    <inkscape:perspective
       sodipodi:type="inkscape:persp3d"
       inkscape:vp_x="0 : 512 : 1"
       inkscape:vp_y="0 : 1000 : 0"
       inkscape:vp_z="1024 : 512 : 1"
       inkscape:persp3d-origin="512 : 341.33333 : 1"
       id="perspective28" />
    <inkscape:perspective
       id="perspective3614"
       inkscape:persp3d-origin="0.5 : 0.33333333 : 1"
       inkscape:vp_z="1 : 0.5 : 1"
       inkscape:vp_y="0 : 1000 : 0"
       inkscape:vp_x="0 : 0.5 : 1"
       sodipodi:type="inkscape:persp3d" />
    <inkscape:perspective
       id="perspective3658"
       inkscape:persp3d-origin="0.5 : 0.33333333 : 1"
       inkscape:vp_z="1 : 0.5 : 1"
       inkscape:vp_y="0 : 1000 : 0"
       inkscape:vp_x="0 : 0.5 : 1"
       sodipodi:type="inkscape:persp3d" />
    <inkscape:perspective
       id="perspective3658-4"
       inkscape:persp3d-origin="0.5 : 0.33333333 : 1"
       inkscape:vp_z="1 : 0.5 : 1"
       inkscape:vp_y="0 : 1000 : 0"
       inkscape:vp_x="0 : 0.5 : 1"
       sodipodi:type="inkscape:persp3d" />
    <inkscape:perspective
       id="perspective3658-6"
       inkscape:persp3d-origin="0.5 : 0.33333333 : 1"
       inkscape:vp_z="1 : 0.5 : 1"
       inkscape:vp_y="0 : 1000 : 0"
       inkscape:vp_x="0 : 0.5 : 1"
       sodipodi:type="inkscape:persp3d" />
    <inkscape:perspective
       id="perspective3658-9"
       inkscape:persp3d-origin="0.5 : 0.33333333 : 1"
       inkscape:vp_z="1 : 0.5 : 1"
       inkscape:vp_y="0 : 1000 : 0"
       inkscape:vp_x="0 : 0.5 : 1"
       sodipodi:type="inkscape:persp3d" />
    <inkscape:perspective
       id="perspective3658-7"
       inkscape:persp3d-origin="0.5 : 0.33333333 : 1"
       inkscape:vp_z="1 : 0.5 : 1"
       inkscape:vp_y="0 : 1000 : 0"
       inkscape:vp_x="0 : 0.5 : 1"
       sodipodi:type="inkscape:persp3d" />
    <inkscape:perspective
       id="perspective3658-5"
       inkscape:persp3d-origin="0.5 : 0.33333333 : 1"
       inkscape:vp_z="1 : 0.5 : 1"
       inkscape:vp_y="0 : 1000 : 0"
       inkscape:vp_x="0 : 0.5 : 1"
       sodipodi:type="inkscape:persp3d" />
    <inkscape:perspective
       id="perspective3734"
       inkscape:persp3d-origin="0.5 : 0.33333333 : 1"
       inkscape:vp_z="1 : 0.5 : 1"
       inkscape:vp_y="0 : 1000 : 0"
       inkscape:vp_x="0 : 0.5 : 1"
       sodipodi:type="inkscape:persp3d" />
    <inkscape:perspective
       id="perspective3774"
       inkscape:persp3d-origin="0.5 : 0.33333333 : 1"
       inkscape:vp_z="1 : 0.5 : 1"
       inkscape:vp_y="0 : 1000 : 0"
       inkscape:vp_x="0 : 0.5 : 1"
       sodipodi:type="inkscape:persp3d" />
    <inkscape:perspective
       id="perspective3947"
       inkscape:persp3d-origin="0.5 : 0.33333333 : 1"
       inkscape:vp_z="1 : 0.5 : 1"
       inkscape:vp_y="0 : 1000 : 0"
       inkscape:vp_x="0 : 0.5 : 1"
       sodipodi:type="inkscape:persp3d" />
    <inkscape:perspective
       id="perspective4090"
       inkscape:persp3d-origin="0.5 : 0.33333333 : 1"
       inkscape:vp_z="1 : 0.5 : 1"
       inkscape:vp_y="0 : 1000 : 0"
       inkscape:vp_x="0 : 0.5 : 1"
       sodipodi:type="inkscape:persp3d" />
    <inkscape:perspective
       id="perspective4121"
       inkscape:persp3d-origin="0.5 : 0.33333333 : 1"
       inkscape:vp_z="1 : 0.5 : 1"
       inkscape:vp_y="0 : 1000 : 0"
       inkscape:vp_x="0 : 0.5 : 1"
       sodipodi:type="inkscape:persp3d" />
    <inkscape:perspective
       id="perspective4233"
       inkscape:persp3d-origin="0.5 : 0.33333333 : 1"
       inkscape:vp_z="1 : 0.5 : 1"
       inkscape:vp_y="0 : 1000 : 0"
       inkscape:vp_x="0 : 0.5 : 1"
       sodipodi:type="inkscape:persp3d" />
    <inkscape:perspective
       id="perspective4378"
       inkscape:persp3d-origin="0.5 : 0.33333333 : 1"
       inkscape:vp_z="1 : 0.5 : 1"
       inkscape:vp_y="0 : 1000 : 0"
       inkscape:vp_x="0 : 0.5 : 1"
       sodipodi:type="inkscape:persp3d" />
    <inkscape:perspective
       id="perspective4552"
       inkscape:persp3d-origin="0.5 : 0.33333333 : 1"
       inkscape:vp_z="1 : 0.5 : 1"
       inkscape:vp_y="0 : 1000 : 0"
       inkscape:vp_x="0 : 0.5 : 1"
       sodipodi:type="inkscape:persp3d" />
    <inkscape:perspective
       id="perspective4574"
       inkscape:persp3d-origin="0.5 : 0.33333333 : 1"
       inkscape:vp_z="1 : 0.5 : 1"
       inkscape:vp_y="0 : 1000 : 0"
       inkscape:vp_x="0 : 0.5 : 1"
       sodipodi:type="inkscape:persp3d" />
    <inkscape:perspective
       id="perspective4599"
       inkscape:persp3d-origin="0.5 : 0.33333333 : 1"
       inkscape:vp_z="1 : 0.5 : 1"
       inkscape:vp_y="0 : 1000 : 0"
       inkscape:vp_x="0 : 0.5 : 1"
       sodipodi:type="inkscape:persp3d" />
    <inkscape:perspective
       id="perspective4630"
       inkscape:persp3d-origin="0.5 : 0.33333333 : 1"
       inkscape:vp_z="1 : 0.5 : 1"
       inkscape:vp_y="0 : 1000 : 0"
       inkscape:vp_x="0 : 0.5 : 1"
       sodipodi:type="inkscape:persp3d" />
    <inkscape:perspective
       id="perspective4673"
       inkscape:persp3d-origin="0.5 : 0.33333333 : 1"
       inkscape:vp_z="1 : 0.5 : 1"
       inkscape:vp_y="0 : 1000 : 0"
       inkscape:vp_x="0 : 0.5 : 1"
       sodipodi:type="inkscape:persp3d" />
    <inkscape:perspective
       id="perspective4740"
       inkscape:persp3d-origin="0.5 : 0.33333333 : 1"
       inkscape:vp_z="1 : 0.5 : 1"
       inkscape:vp_y="0 : 1000 : 0"
       inkscape:vp_x="0 : 0.5 : 1"
       sodipodi:type="inkscape:persp3d" />
    <inkscape:perspective
       id="perspective4762"
       inkscape:persp3d-origin="0.5 : 0.33333333 : 1"
       inkscape:vp_z="1 : 0.5 : 1"
       inkscape:vp_y="0 : 1000 : 0"
       inkscape:vp_x="0 : 0.5 : 1"
       sodipodi:type="inkscape:persp3d" />
    <inkscape:perspective
       id="perspective4917"
       inkscape:persp3d-origin="0.5 : 0.33333333 : 1"
       inkscape:vp_z="1 : 0.5 : 1"
       inkscape:vp_y="0 : 1000 : 0"
       inkscape:vp_x="0 : 0.5 : 1"
       sodipodi:type="inkscape:persp3d" />
    <inkscape:perspective
       id="perspective4951"
       inkscape:persp3d-origin="0.5 : 0.33333333 : 1"
       inkscape:vp_z="1 : 0.5 : 1"
       inkscape:vp_y="0 : 1000 : 0"
       inkscape:vp_x="0 : 0.5 : 1"
       sodipodi:type="inkscape:persp3d" />
    <inkscape:perspective
       id="perspective4997"
       inkscape:persp3d-origin="0.5 : 0.33333333 : 1"
       inkscape:vp_z="1 : 0.5 : 1"
       inkscape:vp_y="0 : 1000 : 0"
       inkscape:vp_x="0 : 0.5 : 1"
       sodipodi:type="inkscape:persp3d" />
    <inkscape:perspective
       id="perspective5043"
       inkscape:persp3d-origin="0.5 : 0.33333333 : 1"
       inkscape:vp_z="1 : 0.5 : 1"
       inkscape:vp_y="0 : 1000 : 0"
       inkscape:vp_x="0 : 0.5 : 1"
       sodipodi:type="inkscape:persp3d" />
    <inkscape:perspective
       id="perspective2962"
       inkscape:persp3d-origin="0.5 : 0.33333333 : 1"
       inkscape:vp_z="1 : 0.5 : 1"
       inkscape:vp_y="0 : 1000 : 0"
       inkscape:vp_x="0 : 0.5 : 1"
       sodipodi:type="inkscape:persp3d" />
  </defs>
  <sodipodi:namedview
     pagecolor="#ffffff"
     bordercolor="#666666"
     borderopacity="1"
     objecttolerance="10"
     gridtolerance="10"
     guidetolerance="10"
     inkscape:pageopacity="0"
     inkscape:pageshadow="2"
     inkscape:window-width="1276"
     inkscape:window-height="728"
     id="namedview22"
     showgrid="false"
     inkscape:zoom="11.313709"
     inkscape:cx="382.94006"
     inkscape:cy="289.14995"
     inkscape:window-x="0"
     inkscape:window-y="51"
     inkscape:window-maximized="0"
     inkscape:current-layer="layer5" />
  <desc
     id="desc4">UV-Map from Object: Cube. Exported from Blender3D with UV Exportscript</desc>
  <g
     inkscape:groupmode="layer"
     id="layer3"
     inkscape:label="forced unfold"
     style="display:inline"
     sodipodi:insensitive="true">
    <rect
       style="fill:#2ef614;fill-opacity:1;stroke:none"
       id="rect4110"
       width="160"
       height="160"
       x="245.1127"
       y="745.62238" />
  </g>
  <g
     inkscape:groupmode="layer"
     id="layer2"
     inkscape:label="vertical grid"
     style="display:inline"
     sodipodi:insensitive="true">
    <path
       style="fill:none;stroke:#000000;stroke-width:0.50042784;stroke-linecap:butt;stroke-linejoin:miter;stroke-miterlimit:4;stroke-opacity:1;stroke-dasharray:none"
       d="m 245.47175,905.37216 159.49958,0"
       id="path4477"
       sodipodi:nodetypes="cc" />
    <path
       style="fill:none;stroke:#000000;stroke-width:0.50042784;stroke-linecap:butt;stroke-linejoin:miter;stroke-miterlimit:4;stroke-opacity:1;stroke-dasharray:none;display:inline"
       d="m 245.47175,885.30971 159.49958,0"
       id="path4477-4"
       sodipodi:nodetypes="cc" />
    <path
       style="fill:none;stroke:#000000;stroke-width:0.50042784;stroke-linecap:butt;stroke-linejoin:miter;stroke-miterlimit:4;stroke-opacity:1;stroke-dasharray:none;display:inline"
       d="m 245.47175,865.24726 159.49958,0"
       id="path4477-1"
       sodipodi:nodetypes="cc" />
    <path
       style="fill:none;stroke:#000000;stroke-width:0.50042784;stroke-linecap:butt;stroke-linejoin:miter;stroke-miterlimit:4;stroke-opacity:1;stroke-dasharray:none;display:inline"
       d="m 245.47175,845.18482 159.49958,0"
       id="path4477-4-3"
       sodipodi:nodetypes="cc" />
    <path
       style="fill:none;stroke:#000000;stroke-width:0.50042784;stroke-linecap:butt;stroke-linejoin:miter;stroke-miterlimit:4;stroke-opacity:1;stroke-dasharray:none;display:inline"
       d="m 245.47175,825.12237 159.49958,0"
       id="path4477-44"
       sodipodi:nodetypes="cc" />
    <path
       style="fill:none;stroke:#000000;stroke-width:0.50042784;stroke-linecap:butt;stroke-linejoin:miter;stroke-miterlimit:4;stroke-opacity:1;stroke-dasharray:none;display:inline"
       d="m 245.47175,805.05992 159.49958,0"
       id="path4477-4-4"
       sodipodi:nodetypes="cc" />
    <path
       style="fill:none;stroke:#000000;stroke-width:0.50042784;stroke-linecap:butt;stroke-linejoin:miter;stroke-miterlimit:4;stroke-opacity:1;stroke-dasharray:none;display:inline"
       d="m 245.47175,784.99748 159.49958,0"
       id="path4477-1-6"
       sodipodi:nodetypes="cc" />
    <path
       style="fill:none;stroke:#000000;stroke-width:0.50042784;stroke-linecap:butt;stroke-linejoin:miter;stroke-miterlimit:4;stroke-opacity:1;stroke-dasharray:none;display:inline"
       d="m 245.47175,764.93503 159.49958,0"
       id="path4477-4-3-1"
       sodipodi:nodetypes="cc" />
    <path
       style="fill:none;stroke:#000000;stroke-width:0.50042784;stroke-linecap:butt;stroke-linejoin:miter;stroke-miterlimit:4;stroke-opacity:1;stroke-dasharray:none;display:inline"
       d="m 245.47175,744.87258 159.49958,0"
       id="path4477-5"
       sodipodi:nodetypes="cc" />
  </g>
  <g
     inkscape:groupmode="layer"
     id="layer4"
     inkscape:label="horizontal grid"
     style="display:inline"
     sodipodi:insensitive="true">
    <path
       style="fill:none;stroke:#000000;stroke-width:0.50042784;stroke-linecap:butt;stroke-linejoin:miter;stroke-miterlimit:4;stroke-opacity:1;stroke-dasharray:none;display:inline"
       d="m 244.91996,745.32078 0,159.49958"
       id="path4477-88"
       sodipodi:nodetypes="cc" />
    <path
       style="fill:none;stroke:#000000;stroke-width:0.50042784;stroke-linecap:butt;stroke-linejoin:miter;stroke-miterlimit:4;stroke-opacity:1;stroke-dasharray:none;display:inline"
       d="m 264.98241,745.32078 0,159.49958"
       id="path4477-4-1"
       sodipodi:nodetypes="cc" />
    <path
       style="fill:none;stroke:#000000;stroke-width:0.50042784;stroke-linecap:butt;stroke-linejoin:miter;stroke-miterlimit:4;stroke-opacity:1;stroke-dasharray:none;display:inline"
       d="m 285.04486,745.32078 0,159.49958"
       id="path4477-1-9"
       sodipodi:nodetypes="cc" />
    <path
       style="fill:none;stroke:#000000;stroke-width:0.50042784;stroke-linecap:butt;stroke-linejoin:miter;stroke-miterlimit:4;stroke-opacity:1;stroke-dasharray:none;display:inline"
       d="m 305.1073,745.32078 0,159.49958"
       id="path4477-4-3-4"
       sodipodi:nodetypes="cc" />
    <path
       style="fill:none;stroke:#000000;stroke-width:0.50042784;stroke-linecap:butt;stroke-linejoin:miter;stroke-miterlimit:4;stroke-opacity:1;stroke-dasharray:none;display:inline"
       d="m 325.16975,745.32078 0,159.49958"
       id="path4477-44-3"
       sodipodi:nodetypes="cc" />
    <path
       style="fill:none;stroke:#000000;stroke-width:0.50042784;stroke-linecap:butt;stroke-linejoin:miter;stroke-miterlimit:4;stroke-opacity:1;stroke-dasharray:none;display:inline"
       d="m 345.2322,745.32078 0,159.49958"
       id="path4477-4-4-8"
       sodipodi:nodetypes="cc" />
    <path
       style="fill:none;stroke:#000000;stroke-width:0.50042784;stroke-linecap:butt;stroke-linejoin:miter;stroke-miterlimit:4;stroke-opacity:1;stroke-dasharray:none;display:inline"
       d="m 365.29464,745.32078 0,159.49958"
       id="path4477-1-6-0"
       sodipodi:nodetypes="cc" />
    <path
       style="fill:none;stroke:#000000;stroke-width:0.50042784;stroke-linecap:butt;stroke-linejoin:miter;stroke-miterlimit:4;stroke-opacity:1;stroke-dasharray:none;display:inline"
       d="m 385.35709,745.32078 0,159.49958"
       id="path4477-4-3-1-8"
       sodipodi:nodetypes="cc" />
    <path
       style="fill:none;stroke:#000000;stroke-width:0.50042784;stroke-linecap:butt;stroke-linejoin:miter;stroke-miterlimit:4;stroke-opacity:1;stroke-dasharray:none;display:inline"
       d="m 405.41954,745.32078 0,159.49958"
       id="path4477-5-8"
       sodipodi:nodetypes="cc" />
  </g>
  <g
     inkscape:groupmode="layer"
     id="layer5"
     inkscape:label="borders"
     style="display:inline">
    <rect
       style="fill:none;stroke:#000000;stroke-width:0.24857154;stroke-miterlimit:4;stroke-opacity:1;stroke-dasharray:none"
       id="rect4877"
       width="159.54317"
       height="19.828718"
       x="244.88527"
       y="-744.48047"
       transform="scale(1,-1)" />
    <path
       style="fill:none;stroke:#000000;stroke-width:0.49714309px;stroke-linecap:butt;stroke-linejoin:miter;stroke-opacity:1"
       d="m 244.88735,738.51362 c 4.39781,4.40563 10.95987,6.72444 16.36104,3.50283 3.23043,-1.92685 5.9418,-12.51726 9.20048,-13.41955 5.41303,-1.49883 10.48901,12.95126 15.91228,13.65365 5.38394,0.69728 10.59926,-9.82662 15.98518,-9.43848 3.0197,0.21763 5.9083,5.19187 8.90827,6.57974 3.88618,1.79785 7.84338,4.22862 11.72364,2.2389 2.22798,-1.14246 4.18457,-7.6957 6.42938,-8.03417 2.56318,-0.38648 4.93058,6.68184 7.4948,6.93665 3.91027,0.38855 7.63972,-8.96009 11.54763,-8.29478 3.21762,0.54778 6.11523,9.05564 9.32635,10.03606 5.13879,1.56896 10.21492,-6.20317 15.36655,-6.81223 5.04229,-0.59613 10.07174,2.43128 15.11343,3.10265 5.39648,0.71862 10.64636,1.61556 16.19659,0.98999"
       id="path4881"
       sodipodi:nodetypes="caaaaaaaaaaaaa" />
    <path
       style="fill:#2ef614;fill-opacity:1;fill-rule:nonzero;stroke:none;display:inline"
       d="m 269.80044,729.92189 c -1.03804,0.84925 -1.4566,1.50096 -4.4068,6.86142 -1.13915,2.06984 -2.32899,4.10779 -2.64408,4.52878 -0.56768,0.75851 -2.1931,2.01949 -2.80897,2.17919 -0.17592,0.0457 13.83919,0.16392 31.14469,0.2629 17.3055,0.099 31.47539,0.1631 31.48865,0.14249 0.0133,-0.0206 0.002,-0.26584 -0.0248,-0.54496 -0.0412,-0.42698 -0.33444,-0.48361 -1.8483,-0.35694 -3.62625,0.30343 -8.82688,-1.86438 -12.60525,-5.25431 -3.88752,-3.48786 -3.92978,-3.5155 -5.66351,-3.70563 -2.30041,-0.25225 -3.13906,0.21314 -8.04164,4.46253 -4.71436,4.08626 -5.9767,4.78375 -8.02037,4.43158 -2.07513,-0.35758 -3.27165,-1.46969 -8.29344,-7.70835 -1.61914,-2.01148 -3.34051,-3.97939 -3.82526,-4.37312 -1.79868,-1.46097 -3.39157,-1.79222 -4.45086,-0.92558 z"
       id="path4907" />
    <path
       style="fill:#2ef614;fill-opacity:1;fill-rule:nonzero;stroke:none"
       d="m 245.03423,741.83098 0,2.27842 4.29663,-0.0612 c 2.36315,-0.0336 4.11815,-0.10938 3.90002,-0.1682 -2.8131,-0.75868 -5.10374,-1.89873 -6.95476,-3.46139 -0.56185,-0.47432 -1.07112,-0.86322 -1.13172,-0.86421 -0.0769,-10e-4 -0.11017,0.68661 -0.11017,2.27663 z"
       id="path4931" />
    <path
       style="fill:#2ef614;fill-opacity:1;fill-rule:nonzero;stroke:none"
       d="m 346.21433,733.55707 c -0.90224,0.6323 -1.97661,1.71065 -4.58306,4.60007 -1.85492,2.05627 -3.11569,2.90117 -4.36274,2.92365 -1.28531,0.0231 -1.88902,-0.48234 -3.98647,-3.33797 -2.52726,-3.44079 -3.42864,-3.98765 -4.7643,-2.89043 -0.64789,0.53224 -1.12179,1.22091 -3.32856,4.83706 -0.94863,1.55448 -1.99489,2.66732 -2.50773,2.66732 -0.1394,0 -0.27796,0.15774 -0.30792,0.35052 -0.03,0.1928 0.007,0.35053 0.0829,0.35053 0.0756,0 0.1374,0.23661 0.1374,0.52579 0,0.46618 2.95256,0.52579 26.04419,0.52579 l 26.04417,0 0,-4.0854 0,-4.08539 -1.46349,0.23856 c -1.86029,0.30324 -2.90175,0.8371 -6.60095,3.38371 -3.9288,2.70466 -4.79191,3.13768 -6.75868,3.39081 -2.48252,0.3195 -3.58189,-0.46181 -6.30278,-4.4794 -3.00121,-4.43148 -3.7695,-5.21474 -5.31489,-5.41851 -0.8158,-0.10756 -1.34185,0.023 -2.02713,0.50329 l 0,0 z"
       id="path4933" />
    <path
       style="fill:#2ef614;fill-opacity:1;fill-rule:nonzero;stroke:none"
       d="m 374.68225,740.0246 0,4.0848 14.80685,0 14.80684,0 0,-1.91827 0,-1.91826 -3.98815,-0.002 c -5.67102,-0.003 -13.91633,-1.15168 -17.73737,-2.47154 -1.46166,-0.50489 -4.84201,-1.35413 -6.45595,-1.62193 l -1.43222,-0.23763 0,4.0848 z"
       id="path4935" />
    <path
       style="fill:#d6ae1b;fill-opacity:1;fill-rule:nonzero;stroke:none"
       d="m 324.70915,732.01626 c 0,3.7594 0.0196,6.83525 0.0435,6.83525 0.024,0 0.60895,-0.93134 1.30001,-2.06964 3.00959,-4.95738 3.83207,-5.00355 7.29806,-0.40975 2.29717,3.04465 2.62909,3.32591 3.91777,3.31995 1.30362,-0.006 2.50205,-0.85533 4.67297,-3.31161 3.50865,-3.96982 5.11759,-5.13262 6.56036,-4.74126 1.4064,0.3815 2.4096,1.45254 5.13474,5.48199 0.90714,1.34133 2.07715,2.87089 2.6,3.39902 0.91203,0.92122 1.03842,0.95949 3.10999,0.94156 2.44001,-0.0211 2.62502,-0.10475 7.31529,-3.30659 3.47828,-2.37448 3.95687,-2.63919 5.77291,-3.19299 1.7987,-0.54852 5.61854,0.003 9.95937,1.43786 4.86646,1.60866 15.82732,3.02165 19.89669,2.56495 l 2.00509,-0.22503 0,-6.77948 0,-6.77946 -39.79339,0 -39.7934,0 0,6.83523 z"
       id="path4937" />
    <path
       style="fill:#d6ae1b;fill-opacity:1;fill-rule:nonzero;stroke:none"
       d="m 251.55629,733.57215 0,8.39114 0.41865,0.28437 c 0.23025,0.15641 1.92577,0.27379 3.76782,0.26085 5.2001,-0.0365 6.23226,-0.81287 9.42868,-7.09195 3.2313,-6.3476 4.11692,-7.4314 6.07251,-7.43125 2.16308,1.5e-4 3.54347,1.21485 8.16331,7.18341 4.212,5.44165 5.18614,6.25741 7.49156,6.27348 2.15476,0.0151 3.25786,-0.66658 7.80003,-4.81963 4.03485,-3.68917 5.70549,-4.62077 7.75598,-4.32499 1.56328,0.2255 2.19066,0.6414 5.11188,3.38867 2.55212,2.40014 2.77231,2.56401 4.71527,3.50907 6.16867,3.00049 9.82129,3.20664 11.80457,0.66624 l 0.6226,-0.79751 0,-6.94152 0,-6.9415 -36.57643,0 -36.57643,0 0,8.39112 z"
       id="path4939" />
    <path
       style="fill:#d6ae1b;fill-opacity:1;fill-rule:nonzero;stroke:none"
       d="m 245.03423,731.59144 0,6.41044 0.72712,0.61748 c 1.67494,1.42237 4.91193,3.38689 5.58071,3.38689 l 0.21423,0 0,-8.41262 0,-8.4126 -3.26103,0 -3.26103,0 0,6.41041 z"
       id="path4941" />
    <rect
       style="fill:none;stroke:#000000;stroke-width:0.24853216;stroke-miterlimit:4;stroke-opacity:1;stroke-dasharray:none;display:inline"
       id="rect4877-4"
       width="159.54323"
       height="19.822428"
       x="244.88507"
       y="905.53516" />
    <path
       style="fill:none;stroke:#000000;stroke-width:0.49706432px;stroke-linecap:butt;stroke-linejoin:miter;stroke-opacity:1;display:inline"
       d="m 244.88716,911.50021 c 4.39781,-4.40422 10.95987,-6.7223 16.36104,-3.50171 3.23044,1.92624 5.94181,12.51328 9.20048,13.41529 5.41304,1.49836 10.48902,-12.94715 15.91229,-13.64932 5.38395,-0.69706 10.59927,9.8235 15.98519,9.43548 3.01971,-0.21756 5.90831,-5.19021 8.90828,-6.57765 3.88618,-1.79727 7.84338,-4.22727 11.72364,-2.23819 2.22798,1.1421 4.18457,7.69326 6.42938,8.03163 2.56319,0.38636 4.93058,-6.67972 7.49481,-6.93445 3.91027,-0.38843 7.63972,8.95724 11.54764,8.29214 3.21762,-0.54759 6.11523,-9.05276 9.32635,-10.03286 5.13879,-1.56847 10.21493,6.2012 15.36656,6.81006 5.04229,0.59594 10.07174,-2.43051 15.11344,-3.10167 5.39647,-0.71838 10.64637,-1.61504 16.19658,-0.98968"
       id="path4881-6"
       sodipodi:nodetypes="caaaaaaaaaaaaa" />
    <path
       style="fill:#2ef614;fill-opacity:1;fill-rule:nonzero;stroke:none;display:inline"
       d="m 269.80026,920.08923 c -1.03804,-0.84899 -1.45661,-1.50049 -4.4068,-6.85925 -1.13916,-2.06918 -2.329,-4.10648 -2.64408,-4.52734 -0.56769,-0.75828 -2.19311,-2.01886 -2.80898,-2.1785 -0.17592,-0.0457 13.8392,-0.16387 31.14471,-0.26282 17.3055,-0.0989 31.4754,-0.16304 31.48866,-0.14244 0.0133,0.0206 0.002,0.26574 -0.0248,0.54479 -0.0412,0.42683 -0.33444,0.48344 -1.8483,0.35681 -3.62625,-0.30332 -8.82688,1.8638 -12.60525,5.25265 -3.88753,3.48675 -3.92978,3.51439 -5.66352,3.70446 -2.30041,0.25217 -3.13906,-0.21307 -8.04164,-4.46112 -4.71437,-4.08496 -5.9767,-4.78222 -8.02037,-4.43018 -2.07513,0.35747 -3.27166,1.46923 -8.29345,7.70591 -1.61914,2.01085 -3.34051,3.97813 -3.82526,4.37174 -1.79868,1.46049 -3.39157,1.79164 -4.45087,0.92529 z"
       id="path4907-9" />
    <path
       style="fill:#2ef614;fill-opacity:1;fill-rule:nonzero;stroke:none;display:inline"
       d="m 245.03404,908.18391 0,-2.27769 4.29663,0.0613 c 2.36314,0.0336 4.11815,0.10933 3.90002,0.16814 -2.81311,0.75844 -5.10374,1.89812 -6.95477,3.46029 -0.56185,0.47417 -1.07112,0.86295 -1.13171,0.86394 -0.0769,0.001 -0.11017,-0.68639 -0.11017,-2.27591 z"
       id="path4931-2" />
    <path
       style="fill:#2ef614;fill-opacity:1;fill-rule:nonzero;stroke:none;display:inline"
       d="m 346.21419,916.4552 c -0.90225,-0.63211 -1.97662,-1.71011 -4.58307,-4.59862 -1.85492,-2.05562 -3.11569,-2.90024 -4.36274,-2.92272 -1.28531,-0.0231 -1.88902,0.48219 -3.98647,3.33691 -2.52726,3.4397 -3.42865,3.98639 -4.7643,2.88951 -0.6479,-0.53207 -1.1218,-1.22051 -3.32857,-4.83552 -0.94862,-1.55399 -1.99488,-2.66646 -2.50773,-2.66646 -0.13939,0 -0.27796,-0.1577 -0.30791,-0.35043 -0.03,-0.19274 0.007,-0.35042 0.0829,-0.35042 0.0756,0 0.13741,-0.23652 0.13741,-0.52561 0,-0.46603 2.95255,-0.52562 26.04419,-0.52562 l 26.04419,0 0,4.0841 0,4.0841 -1.4635,-0.2385 c -1.86029,-0.30314 -2.90174,-0.83683 -6.60094,-3.38263 -3.92881,-2.7038 -4.79192,-3.13669 -6.75869,-3.38973 -2.48252,-0.31941 -3.58189,0.46166 -6.30278,4.47797 -3.00121,4.43008 -3.76951,5.2131 -5.31489,5.41679 -0.81581,0.10753 -1.34186,-0.023 -2.02713,-0.50312 l 0,0 z"
       id="path4933-2" />
    <path
       style="fill:#2ef614;fill-opacity:1;fill-rule:nonzero;stroke:none;display:inline"
       d="m 374.68212,909.98971 0,-4.08349 14.80685,0 14.80686,0 0,1.91766 0,1.91765 -3.98815,0.002 c -5.67103,0.003 -13.91635,1.15131 -17.73738,2.47076 -1.46167,0.50473 -4.84202,1.35369 -6.45597,1.62141 l -1.43221,0.23756 0,-4.0835 z"
       id="path4935-4" />
    <path
       style="fill:#d6ae1b;fill-opacity:1;fill-rule:nonzero;stroke:none;display:inline"
       d="m 324.709,917.99552 c 0,-3.7582 0.0196,-6.83309 0.0435,-6.83309 0.024,0 0.60895,0.93105 1.30001,2.06898 3.0096,4.95581 3.83208,5.00197 7.29807,0.40963 2.29716,-3.04369 2.62908,-3.32486 3.91777,-3.31891 1.30362,0.006 2.50205,0.85507 4.67297,3.31057 3.50865,3.96856 5.11759,5.13099 6.56037,4.73975 1.4064,-0.38136 2.4096,-1.45208 5.13473,-5.48024 0.90715,-1.34091 2.07715,-2.86999 2.60001,-3.39795 0.91203,-0.92092 1.03842,-0.95918 3.10999,-0.94126 2.44001,0.0211 2.62502,0.10472 7.31529,3.30554 3.47828,2.37373 3.95688,2.63835 5.77291,3.19198 1.7987,0.54835 5.61855,-0.003 9.95938,-1.4374 4.86646,-1.60815 15.82732,-3.0207 19.8967,-2.56413 l 2.0051,0.22495 0,6.77733 0,6.77729 -39.79342,0 -39.79341,0 0,-6.83304 z"
       id="path4937-7" />
    <path
       style="fill:#d6ae1b;fill-opacity:1;fill-rule:nonzero;stroke:none;display:inline"
       d="m 251.5561,916.44011 0,-8.38847 0.41865,-0.28428 c 0.23025,-0.15636 1.92577,-0.27369 3.76782,-0.26077 5.2001,0.0365 6.23226,0.81263 9.42869,7.0897 3.23129,6.34559 4.11692,7.42905 6.07251,7.42889 2.16308,-1.5e-4 3.54347,-1.21445 8.16331,-7.18112 4.212,-5.43993 5.18614,-6.25543 7.49157,-6.27149 2.15476,-0.0151 3.25786,0.66637 7.80003,4.81809 4.03485,3.688 5.70549,4.61931 7.75598,4.32363 1.56328,-0.22544 2.19066,-0.6412 5.11189,-3.3876 2.55212,-2.39938 2.77231,-2.56319 4.71527,-3.50795 6.16867,-2.99955 9.82129,-3.20563 11.80457,-0.66604 l 0.62261,0.79726 0,6.93932 0,6.93928 -36.57645,0 -36.57645,0 0,-8.38845 z"
       id="path4939-7" />
    <path
       style="fill:#d6ae1b;fill-opacity:1;fill-rule:nonzero;stroke:none;display:inline"
       d="m 245.03404,918.4202 0,-6.40841 0.72712,-0.61728 c 1.67493,-1.42192 4.91193,-3.38582 5.58071,-3.38582 l 0.21423,0 0,8.40995 0,8.40992 -3.26103,0 -3.26103,0 0,-6.40836 z"
       id="path4941-5" />
    <rect
       style="fill:none;stroke:#000000;stroke-width:0.24857154;stroke-miterlimit:4;stroke-opacity:1;stroke-dasharray:none;display:inline"
       id="rect4877-48"
       width="159.54317"
       height="19.828718"
       x="745.651"
       y="405.54868"
       transform="matrix(0,1,1,0,0,0)" />
    <path
       style="fill:none;stroke:#000000;stroke-width:0.49714309px;stroke-linecap:butt;stroke-linejoin:miter;stroke-opacity:1;display:inline"
       d="m 411.51565,745.65308 c -4.40563,4.39781 -6.72444,10.95987 -3.50283,16.36104 1.92685,3.23043 12.51726,5.9418 13.41955,9.20048 1.49883,5.41303 -12.95126,10.48901 -13.65365,15.91228 -0.69728,5.38394 9.82662,10.59926 9.43848,15.98518 -0.21763,3.01971 -5.19187,5.90831 -6.57974,8.90828 -1.79785,3.88617 -4.22862,7.84337 -2.2389,11.72363 1.14246,2.22798 7.6957,4.18457 8.03417,6.42938 0.38648,2.56318 -6.68184,4.93058 -6.93665,7.49481 -0.38855,3.91026 8.96009,7.63972 8.29478,11.54762 -0.54778,3.21763 -9.05564,6.11524 -10.03606,9.32636 -1.56896,5.13879 6.20317,10.21492 6.81223,15.36655 0.59613,5.04229 -2.43128,10.07174 -3.10265,15.11343 -0.71862,5.39647 -1.61556,10.64637 -0.98999,16.19658"
       id="path4881-1"
       sodipodi:nodetypes="caaaaaaaaaaaaa" />
    <path
       style="fill:#2ef614;fill-opacity:1;fill-rule:nonzero;stroke:none;display:inline"
       d="m 420.10738,770.56617 c -0.84925,-1.03804 -1.50096,-1.45661 -6.86142,-4.4068 -2.06984,-1.13916 -4.10779,-2.32899 -4.52878,-2.64408 -0.75851,-0.56768 -2.01949,-2.1931 -2.17919,-2.80897 -0.0457,-0.17592 -0.16392,13.83919 -0.2629,31.14469 -0.0989,17.3055 -0.1631,31.4754 -0.14249,31.48865 0.0206,0.0133 0.26584,0.002 0.54496,-0.0248 0.42698,-0.0412 0.48361,-0.33444 0.35694,-1.8483 -0.30343,-3.62625 1.86438,-8.82688 5.25431,-12.60525 3.48786,-3.88752 3.5155,-3.92978 3.70563,-5.66351 0.25225,-2.30041 -0.21314,-3.13906 -4.46253,-8.04164 -4.08626,-4.71436 -4.78375,-5.9767 -4.43158,-8.02037 0.35758,-2.07512 1.46969,-3.27165 7.70835,-8.29344 2.01148,-1.61914 3.97939,-3.34051 4.37312,-3.82526 1.46097,-1.79868 1.79222,-3.39157 0.92558,-4.45086 z"
       id="path4907-2" />
    <path
       style="fill:#2ef614;fill-opacity:1;fill-rule:nonzero;stroke:none;display:inline"
       d="m 408.19829,745.79996 -2.27842,0 0.0612,4.29663 c 0.0336,2.36314 0.10938,4.11815 0.1682,3.90002 0.75868,-2.81311 1.89873,-5.10374 3.46139,-6.95476 0.47432,-0.56186 0.86322,-1.07112 0.86421,-1.13172 10e-4,-0.0769 -0.68661,-0.11017 -2.27663,-0.11017 z"
       id="path4931-8" />
    <path
       style="fill:#2ef614;fill-opacity:1;fill-rule:nonzero;stroke:none;display:inline"
       d="m 416.4722,846.98007 c -0.6323,-0.90225 -1.71065,-1.97662 -4.60007,-4.58307 -2.05627,-1.85491 -2.90117,-3.11568 -2.92365,-4.36274 -0.0231,-1.28531 0.48234,-1.88902 3.33797,-3.98646 3.44079,-2.52726 3.98765,-3.42865 2.89043,-4.7643 -0.53224,-0.6479 -1.22091,-1.1218 -4.83706,-3.32857 -1.55448,-0.94862 -2.66731,-1.99488 -2.66731,-2.50773 0,-0.13939 -0.15775,-0.27796 -0.35053,-0.30791 -0.1928,-0.03 -0.35053,0.007 -0.35053,0.0829 0,0.0756 -0.23661,0.13741 -0.52579,0.13741 -0.46618,0 -0.52579,2.95255 -0.52579,26.04418 l 0,26.04418 4.0854,0 4.08539,0 -0.23856,-1.4635 c -0.30324,-1.86029 -0.8371,-2.90174 -3.38371,-6.60094 -2.70466,-3.92881 -3.13768,-4.79191 -3.39081,-6.75869 -0.3195,-2.48252 0.46181,-3.58188 4.4794,-6.30277 4.43148,-3.00121 5.21474,-3.76951 5.41851,-5.31489 0.10756,-0.8158 -0.023,-1.34186 -0.50329,-2.02713 l 0,0 z"
       id="path4933-9" />
    <path
       style="fill:#2ef614;fill-opacity:1;fill-rule:nonzero;stroke:none;display:inline"
       d="m 410.00467,875.44799 -4.0848,0 0,14.80684 0,14.80685 1.91827,0 1.91826,0 0.002,-3.98814 c 0.003,-5.67103 1.15168,-13.91635 2.47154,-17.73738 0.50489,-1.46167 1.35413,-4.84201 1.62193,-6.45596 l 0.23763,-1.43221 -4.0848,0 z"
       id="path4935-3" />
    <path
       style="fill:#d6ae1b;fill-opacity:1;fill-rule:nonzero;stroke:none;display:inline"
       d="m 418.01301,825.47489 c -3.7594,0 -6.83525,0.0196 -6.83525,0.0435 0,0.024 0.93134,0.60895 2.06964,1.30001 4.95738,3.0096 5.00355,3.83208 0.40975,7.29806 -3.04465,2.29717 -3.32591,2.62909 -3.31995,3.91777 0.006,1.30362 0.85533,2.50205 3.31161,4.67297 3.96982,3.50865 5.13262,5.11759 4.74126,6.56037 -0.3815,1.4064 -1.45254,2.4096 -5.48199,5.13473 -1.34133,0.90715 -2.87089,2.07715 -3.39902,2.60001 -0.92122,0.91202 -0.95949,1.03841 -0.94156,3.10999 0.0211,2.44001 0.10475,2.62501 3.30659,7.31528 2.37448,3.47828 2.63919,3.95688 3.19299,5.77291 0.54852,1.7987 -0.003,5.61855 -1.43786,9.95937 -1.60866,4.86645 -3.02165,15.82732 -2.56495,19.8967 l 0.22503,2.00509 6.77948,0 6.77946,0 0,-39.79339 0,-39.7934 -6.83523,0 z"
       id="path4937-6" />
    <path
       style="fill:#d6ae1b;fill-opacity:1;fill-rule:nonzero;stroke:none;display:inline"
       d="m 416.45712,752.32202 -8.39114,0 -0.28437,0.41865 c -0.15641,0.23025 -0.27379,1.92577 -0.26085,3.76781 0.0365,5.20011 0.81287,6.23227 7.09195,9.42869 6.3476,3.2313 7.4314,4.11692 7.43125,6.07251 -1.5e-4,2.16308 -1.21485,3.54347 -7.18341,8.16331 -5.44165,4.212 -6.25741,5.18614 -6.27348,7.49156 -0.0151,2.15476 0.66658,3.25786 4.81963,7.80004 3.68917,4.03484 4.62077,5.70548 4.32499,7.75597 -0.2255,1.56328 -0.6414,2.19066 -3.38866,5.11188 -2.40015,2.55213 -2.56402,2.77231 -3.50908,4.71527 -3.00049,6.16867 -3.20664,9.82129 -0.66624,11.80457 l 0.79751,0.62261 6.94152,0 6.9415,0 0,-36.57643 0,-36.57644 -8.39112,0 z"
       id="path4939-8" />
    <path
       style="fill:#d6ae1b;fill-opacity:1;fill-rule:nonzero;stroke:none;display:inline"
       d="m 418.43783,745.79996 -6.41044,0 -0.61748,0.72712 c -1.42237,1.67494 -3.38689,4.91193 -3.38689,5.58071 l 0,0.21423 8.41262,0 8.4126,0 0,-3.26103 0,-3.26103 -6.41041,0 z"
       id="path4941-0" />
    <rect
       style="fill:none;stroke:#000000;stroke-width:0.24857154;stroke-miterlimit:4;stroke-opacity:1;stroke-dasharray:none;display:inline"
       id="rect4877-48-2"
       width="159.54317"
       height="19.828718"
       x="-905.10925"
       y="-244.61032"
       transform="matrix(0,-1,-1,0,0,0)" />
    <path
       style="fill:none;stroke:#000000;stroke-width:0.49714309px;stroke-linecap:butt;stroke-linejoin:miter;stroke-opacity:1;display:inline"
       d="m 238.64354,905.10714 c 4.40562,-4.39781 6.72443,-10.95987 3.50282,-16.36104 -1.92685,-3.23044 -12.51726,-5.9418 -13.41955,-9.20048 -1.49883,-5.41303 12.95126,-10.48901 13.65365,-15.91228 0.69729,-5.38394 -9.82662,-10.59927 -9.43848,-15.98518 0.21764,-3.01971 5.19187,-5.90831 6.57975,-8.90828 1.79784,-3.88617 4.22861,-7.84337 2.23889,-11.72363 -1.14246,-2.22798 -7.6957,-4.18457 -8.03417,-6.42938 -0.38648,-2.56319 6.68184,-4.93058 6.93665,-7.49481 0.38855,-3.91026 -8.96009,-7.63972 -8.29478,-11.54763 0.54778,-3.21762 9.05565,-6.11523 10.03606,-9.32635 1.56896,-5.13879 -6.20317,-10.21492 -6.81222,-15.36655 -0.59614,-5.04229 2.43127,-10.07174 3.10265,-15.11344 0.71861,-5.39647 1.61555,-10.64636 0.98999,-16.19657"
       id="path4881-1-1"
       sodipodi:nodetypes="caaaaaaaaaaaaa" />
    <path
       style="fill:#2ef614;fill-opacity:1;fill-rule:nonzero;stroke:none;display:inline"
       d="m 230.0518,880.19405 c 0.84925,1.03804 1.50096,1.4566 6.86142,4.4068 2.06984,1.13915 4.1078,2.32899 4.52878,2.64407 0.75851,0.56769 2.0195,2.19311 2.17919,2.80898 0.0457,0.17592 0.16392,-13.83919 0.2629,-31.14469 0.099,-17.3055 0.1631,-31.4754 0.14249,-31.48866 -0.0206,-0.0133 -0.26584,-0.002 -0.54496,0.0248 -0.42698,0.0412 -0.48361,0.33443 -0.35694,1.84829 0.30343,3.62626 -1.86438,8.82689 -5.25431,12.60526 -3.48785,3.88751 -3.5155,3.92977 -3.70563,5.66351 -0.25225,2.30041 0.21314,3.13906 4.46253,8.04163 4.08626,4.71437 4.78375,5.97671 4.43158,8.02038 -0.35758,2.07512 -1.46968,3.27165 -7.70834,8.29344 -2.01149,1.61914 -3.9794,3.34051 -4.37313,3.82526 -1.46097,1.79867 -1.79221,3.39157 -0.92558,4.45086 z"
       id="path4907-2-0" />
    <path
       style="fill:#2ef614;fill-opacity:1;fill-rule:nonzero;stroke:none;display:inline"
       d="m 241.96089,904.96026 2.27842,0 -0.0613,-4.29663 c -0.0336,-2.36315 -0.10937,-4.11815 -0.16819,-3.90002 -0.75869,2.8131 -1.89874,5.10373 -3.46139,6.95476 -0.47433,0.56185 -0.86322,1.07112 -0.86421,1.13172 -0.001,0.0769 0.6866,0.11017 2.27662,0.11017 z"
       id="path4931-8-5" />
    <path
       style="fill:#2ef614;fill-opacity:1;fill-rule:nonzero;stroke:none;display:inline"
       d="m 233.68698,803.78015 c 0.6323,0.90224 1.71066,1.97661 4.60008,4.58307 2.05627,1.85491 2.90116,3.11568 2.92365,4.36273 0.0231,1.28531 -0.48235,1.88903 -3.33798,3.98647 -3.44079,2.52726 -3.98765,3.42865 -2.89042,4.7643 0.53223,0.6479 1.2209,1.1218 4.83705,3.32857 1.55449,0.94862 2.66732,1.99488 2.66732,2.50773 0,0.13939 0.15774,0.27795 0.35053,0.30791 0.19279,0.03 0.35052,-0.007 0.35052,-0.0829 0,-0.0756 0.23661,-0.13741 0.52579,-0.13741 0.46618,0 0.52579,-2.95255 0.52579,-26.04418 l 0,-26.04418 -4.0854,0 -4.08539,0 0.23856,1.4635 c 0.30325,1.86029 0.8371,2.90174 3.38371,6.60094 2.70466,3.92881 3.13768,4.79191 3.39081,6.75869 0.31951,2.48252 -0.46181,3.58188 -4.4794,6.30277 -4.43148,3.00121 -5.21474,3.76951 -5.4185,5.31489 -0.10757,0.8158 0.023,1.34186 0.50328,2.02713 l 0,0 z"
       id="path4933-9-1" />
    <path
       style="fill:#2ef614;fill-opacity:1;fill-rule:nonzero;stroke:none;display:inline"
       d="m 240.15452,775.31223 4.08479,0 0,-14.80684 0,-14.80685 -1.91827,0 -1.91826,0 -0.002,3.98814 c -0.003,5.67102 -1.15168,13.91635 -2.47154,17.73738 -0.50488,1.46166 -1.35412,4.84201 -1.62192,6.45596 l -0.23764,1.43221 4.0848,0 z"
       id="path4935-3-1" />
    <path
       style="fill:#d6ae1b;fill-opacity:1;fill-rule:nonzero;stroke:none;display:inline"
       d="m 232.14618,825.28533 c 3.75939,0 6.83525,-0.0196 6.83525,-0.0435 0,-0.024 -0.93135,-0.60895 -2.06964,-1.30001 -4.95738,-3.0096 -5.00356,-3.83208 -0.40976,-7.29807 3.04465,-2.29716 3.32592,-2.62908 3.31995,-3.91777 -0.006,-1.30361 -0.85533,-2.50204 -3.3116,-4.67296 -3.96983,-3.50865 -5.13263,-5.1176 -4.74127,-6.56037 0.3815,-1.4064 1.45255,-2.4096 5.48199,-5.13473 1.34133,-0.90715 2.8709,-2.07715 3.39903,-2.60001 0.92121,-0.91202 0.95948,-1.03842 0.94155,-3.10999 -0.0211,-2.44001 -0.10475,-2.62502 -3.30659,-7.31528 -2.37447,-3.47829 -2.63919,-3.95688 -3.19299,-5.77291 -0.54852,-1.7987 0.003,-5.61855 1.43786,-9.95937 1.60866,-4.86645 3.02166,-15.82732 2.56495,-19.8967 l -0.22503,-2.00509 -6.77948,0 -6.77946,0 0,39.79339 0,39.7934 6.83524,0 z"
       id="path4937-6-0" />
    <path
       style="fill:#d6ae1b;fill-opacity:1;fill-rule:nonzero;stroke:none;display:inline"
       d="m 233.70206,898.4382 8.39115,0 0.28437,-0.41865 c 0.1564,-0.23025 0.27378,-1.92577 0.26085,-3.76782 -0.0365,-5.20011 -0.81288,-6.23226 -7.09196,-9.42868 -6.3476,-3.2313 -7.43139,-4.11693 -7.43125,-6.07251 1.5e-4,-2.16308 1.21485,-3.54347 7.18342,-8.16331 5.44164,-4.212 6.25741,-5.18615 6.27348,-7.49157 0.0151,-2.15475 -0.66658,-3.25785 -4.81963,-7.80003 -3.68918,-4.03485 -4.62078,-5.70548 -4.325,-7.75597 0.22551,-1.56328 0.6414,-2.19066 3.38867,-5.11189 2.40014,-2.55212 2.56401,-2.77231 3.50907,-4.71526 3.0005,-6.16868 3.20664,-9.82129 0.66624,-11.80457 l -0.79751,-0.62261 -6.94152,0 -6.9415,0 0,36.57643 0,36.57644 8.39112,0 z"
       id="path4939-8-8" />
    <path
       style="fill:#d6ae1b;fill-opacity:1;fill-rule:nonzero;stroke:none;display:inline"
       d="m 231.72136,904.96026 6.41043,0 0.61748,-0.72712 c 1.42238,-1.67494 3.38689,-4.91193 3.38689,-5.58071 l 0,-0.21423 -8.41261,0 -8.41261,0 0,3.26103 0,3.26103 6.41042,0 z"
       id="path4941-0-5" />
  </g>
</svg>
